<?xml version="1.0" encoding="UTF-8" standalone="no"?>
<svg width="550px" height="440px" viewBox="0 0 550 440" version="1.1" xmlns="http://www.w3.org/2000/svg" xmlns:xlink="http://www.w3.org/1999/xlink">
    <!-- Generator: Sketch 40.1 (33804) - http://www.bohemiancoding.com/sketch -->
    <title>eye-blue</title>
    <desc>Created with Sketch.</desc>
    <defs>
        <polygon id="path-1" points="469.964 430.837092 469.964 250.423665 128.000029 250.423665 128.000029 430.837092"></polygon>
    </defs>
    <g id="Page-1" stroke="none" stroke-width="1" fill="none" fill-rule="evenodd">
        <g id="eye-blue">
            <mask id="mask-2" fill="white">
                <use xlink:href="#path-1"></use>
            </mask>
            <g id="Clip-2"></g>
            <path d="M457.0112,344.4888 C456.9802,344.3868 456.9592,344.2828 456.9252,344.1848 C456.7112,343.6228 456.3992,343.1318 456.0352,342.6798 L454.9702,341.3028 C453.5392,339.4718 452.0762,337.6608 450.5892,335.8688 C447.6132,332.2838 444.5382,328.7738 441.3802,325.3418 C435.0602,318.4788 428.4142,311.9088 421.4342,305.7238 C414.4442,299.5528 407.1362,293.7458 399.5082,288.4158 C391.8882,283.0758 383.9212,278.2448 375.6422,274.0678 C359.1162,265.6908 341.2642,259.8838 322.9532,258.0778 C318.3632,257.6148 313.8202,257.4138 309.2062,257.4628 C304.6562,257.5178 300.1062,257.9048 295.5912,258.5718 C286.5552,259.9088 277.6742,262.3898 269.0752,265.6558 C260.4732,268.9278 252.1462,272.9838 244.1062,277.5708 C236.0662,282.1598 228.2842,287.2438 220.7722,292.7218 C205.7442,303.6828 191.7312,316.0898 178.5662,329.3258 C171.9852,335.9488 165.6472,342.8118 159.3422,349.7038 C153.0492,356.5988 146.9012,363.6728 141.2902,371.0798 C139.8902,372.9248 138.5392,374.8158 137.2912,376.6928 C136.9812,377.1598 136.6772,377.6268 136.4012,378.0738 L136.0262,378.7028 C135.9172,378.8828 135.8342,379.0958 135.9682,378.7838 C135.9202,378.9608 135.9762,378.9358 135.9682,378.7538 C135.9652,378.5718 135.8622,378.3758 135.8872,378.4018 C135.9222,378.4518 136.5422,378.9238 137.3282,379.2608 C138.1222,379.6228 139.0782,379.9568 140.0792,380.2478 C142.0992,380.8098 144.3002,381.2368 146.5252,381.5998 C150.9952,382.3028 155.6162,382.7378 160.2542,383.0258 C164.8952,383.3178 169.5712,383.4748 174.2622,383.4628 L174.2692,383.4628 L174.5432,383.4928 C175.3682,383.5848 176.1502,383.8718 176.8112,384.2808 C182.3202,387.7228 188.0052,390.9398 193.8052,393.9528 C199.6212,396.9358 205.5582,399.7058 211.5852,402.2698 C223.6412,407.3988 236.0672,411.7058 248.7432,415.0848 C261.4322,418.4088 274.3742,420.7838 287.4242,422.0548 C293.9552,422.6998 300.4922,423.0118 307.0462,423.0498 C313.5362,423.0738 320.0352,422.6348 326.4882,421.7748 C339.4002,420.0728 352.0972,416.6128 364.2972,411.8438 C376.5102,407.0868 388.2462,401.0498 399.4352,394.1108 C410.6062,387.1368 421.2232,379.2498 431.2702,370.6938 C436.2922,366.4138 441.1702,361.9618 445.8832,357.3448 C448.2392,355.0388 450.5532,352.6888 452.8162,350.2978 L454.5012,348.4948 C455.0532,347.8868 455.6432,347.3108 456.0862,346.6068 C456.4922,345.9798 456.7942,345.2708 457.0112,344.4888 L457.0112,344.4888 Z M466.3752,348.7908 C465.0322,348.8978 464.0542,349.1548 463.1522,349.5158 C462.2712,349.8848 461.5072,350.3408 460.8432,350.8848 C460.1702,351.4198 459.6372,352.0778 459.0592,352.6948 L457.3332,354.5528 C455.0202,357.0148 452.6592,359.4278 450.2582,361.7968 C445.4552,366.5328 440.4882,371.0968 435.3712,375.4888 C425.1382,384.2708 414.2972,392.3648 402.8682,399.5838 C391.4602,406.8238 379.4342,413.1758 366.8292,418.2398 C354.2292,423.2918 341.0492,427.0698 327.5332,429.1248 C320.7782,430.1428 313.9432,430.7248 307.0902,430.8178 C300.3022,430.9118 293.4962,430.6568 286.7342,430.1728 C273.1942,429.1808 259.7512,427.0408 246.5472,423.9258 C220.0902,417.7948 194.6022,407.8838 170.6852,394.5988 L173.2272,395.4178 L173.2212,395.4168 C163.8002,393.7378 154.3862,392.4188 144.8222,390.2458 C142.4222,389.6908 140.0152,389.0738 137.5372,388.2108 C136.2932,387.7818 135.0302,387.3008 133.7042,386.6248 C132.3952,385.9138 130.9352,385.1328 129.5022,383.3148 C128.8042,382.4128 128.1922,381.1068 128.0482,379.7508 C127.8892,378.3938 128.1472,377.1768 128.4802,376.2408 C128.8002,375.3668 129.0252,375.0718 129.2052,374.7398 L129.7532,373.8598 C130.1082,373.3098 130.4582,372.7968 130.8112,372.2878 C132.2202,370.2668 133.6562,368.3518 135.0832,366.4228 C140.8212,358.7568 146.7312,351.3008 152.8902,344.0248 C159.0522,336.7568 165.6302,329.8528 172.4002,323.1478 C185.9492,309.7498 200.3772,297.1778 215.9352,286.0238 C231.4792,274.8958 248.2422,265.1628 266.4192,258.5138 C275.4962,255.2078 284.9262,252.7038 294.5812,251.4098 C299.4062,250.7638 304.2822,250.4158 309.1662,250.4238 C313.9872,250.4438 318.8782,250.6988 323.6692,251.2318 C342.9432,253.3208 361.5232,259.5958 378.5312,268.4218 C395.5542,277.2928 411.2352,288.4628 425.5082,301.1158 C432.6612,307.4288 439.5042,314.0838 445.9982,321.0678 C449.2472,324.5578 452.4092,328.1288 455.4812,331.7848 C457.0162,333.6128 458.5272,335.4638 460.0112,337.3418 L461.1192,338.7558 C461.4782,339.2358 461.8802,339.6818 462.3782,340.0598 C463.4062,340.8208 464.5932,341.3428 466.6662,341.5338 C468.6632,341.7188 470.1332,343.4868 469.9492,345.4848 C469.7832,347.2708 468.3512,348.6348 466.6212,348.7718 L466.3752,348.7908 Z" id="Fill-1" fill="#FFFFFF"></path>
            <path d="M141.6421,284.6758 C151.1541,273.2748 161.6951,262.6288 173.2671,253.2098 C184.8351,243.7928 197.4641,235.5988 210.9751,229.1718 C224.4721,222.7328 238.8401,218.0928 253.5471,215.5278 C260.8981,214.2378 268.3291,213.4558 275.7651,213.1648 C279.4801,213.0158 283.2101,212.9918 286.9111,213.0858 C290.6571,213.1808 294.3511,213.4078 298.0511,213.7468 C312.8361,215.1118 327.3301,218.2348 341.4121,222.4588 C355.4971,226.6958 369.1931,232.0428 382.4761,238.2078 C395.7561,244.3828 408.6361,251.3748 421.0211,259.1548 C427.2091,263.0498 433.2751,267.1438 439.1651,271.4858 C445.0521,275.8318 450.7801,280.4098 456.1801,285.3938 C456.8231,285.9878 456.8631,286.9888 456.2701,287.6328 C455.6861,288.2648 454.7061,288.3138 454.0631,287.7508 L454.0571,287.7458 C448.6561,283.0078 442.9051,278.6408 436.9961,274.5078 C431.0831,270.3758 424.9961,266.4868 418.7921,262.7988 C406.3771,255.4318 393.4951,248.8558 380.2731,243.1118 C367.0491,237.3758 353.4731,232.4728 339.6251,228.6878 C325.7841,224.9128 311.6481,222.2528 297.4531,221.3068 C283.3141,220.3618 268.9911,221.2798 255.1521,224.0658 C241.2921,226.8488 227.8671,231.5668 215.2931,237.9598 C202.7091,244.3418 190.9821,252.3758 180.2481,261.5758 C169.5061,270.7828 159.7591,281.1298 150.9371,292.2658 C148.8791,294.8638 145.1051,295.3008 142.5071,293.2428 C139.9101,291.1848 139.4721,287.4108 141.5301,284.8138 C141.5551,284.7808 141.5811,284.7488 141.6071,284.7168 L141.6421,284.6758 Z" id="Fill-4" fill="#FFFFFF"></path>
            <path d="M368.812,261.8272 C367.409,264.4272 367.94,265.3682 368.66,266.0272 C369.308,266.7772 369.945,267.5352 370.57,268.3042 C371.812,269.8472 373.009,271.4262 374.164,273.0352 C376.444,276.2722 378.587,279.6122 380.449,283.1152 C384.199,290.0982 387.109,297.5682 388.951,305.3432 C390.786,313.1192 391.562,321.1682 391.163,329.2112 C390.752,337.2512 389.088,345.2492 386.299,352.8322 C380.656,367.9772 370.7,381.4832 357.856,391.2592 C345.034,401.0492 329.42,407.1452 313.403,408.4892 C297.417,409.9132 281.065,406.8032 266.831,399.5282 C252.591,392.3002 240.452,381.0302 232.423,367.3462 C224.328,353.6882 220.387,337.8282 220.712,322.1672 C220.768,318.2712 221.09,314.3492 221.686,310.4882 C222.248,306.6172 223.062,302.7822 224.152,299.0252 C225.258,295.2732 226.551,291.5722 228.112,287.9782 C228.892,286.1812 229.736,284.4112 230.641,282.6722 C231.095,281.8032 231.563,280.9422 232.043,280.0872 C232.202,279.0142 234.372,279.2632 230.312,275.5122 L240.454,281.9252 C235.377,279.7922 236.553,281.6732 235.743,282.2492 C235.264,283.0472 234.795,283.8522 234.34,284.6642 C233.433,286.2912 232.583,287.9502 231.791,289.6382 C230.206,293.0132 228.845,296.5022 227.813,300.0912 C226.765,303.6742 225.958,307.3292 225.429,311.0272 C224.933,314.7332 224.7,318.4552 224.72,322.2032 C224.824,337.1332 229.443,351.8732 237.51,364.1982 C241.524,370.3782 246.381,375.9792 251.855,380.8562 C257.348,385.7132 263.486,389.8242 270.07,392.9922 C283.229,399.3632 298.145,401.8462 312.595,400.2452 C327.036,398.6782 340.948,393.0222 352.303,384.0702 C363.694,375.1822 372.621,363.1472 377.599,349.5982 C380.148,342.8512 381.769,335.7622 382.515,328.5552 C383.264,321.3512 383.112,313.9922 381.881,306.7852 C380.672,299.5752 378.406,292.4972 375.063,285.9342 C373.378,282.6622 371.501,279.4772 369.33,276.4992 C368.255,275.0022 367.118,273.5512 365.925,272.1472 C365.329,271.4452 364.722,270.7532 364.104,270.0702 C363.553,269.3022 362.789,268.8362 360.072,270.0492 L368.812,261.8272 Z" id="Fill-6" fill="#FFFFFF"></path>
            <path d="M185.2026,401.4468 C184.4936,400.7828 184.0166,400.2768 183.4746,399.6998 C182.9556,399.1358 182.4406,398.5918 181.9486,398.0288 C180.9686,396.9018 180.0026,395.7938 179.0876,394.6478 C177.2476,392.3678 175.5296,390.0268 173.9196,387.6208 C170.7156,382.8008 167.9826,377.6938 165.8596,372.3208 C163.7446,366.9458 162.2686,361.3198 161.3666,355.5668 C160.9176,352.6878 160.6066,349.7758 160.4256,346.8358 C160.2406,343.8928 160.2166,340.9318 160.1696,337.9188 L160.1666,337.7058 C160.1136,334.3108 162.8236,331.5158 166.2186,331.4638 C169.6136,331.4108 172.4086,334.1208 172.4606,337.5148 C172.4736,338.3708 172.2986,339.2168 171.9946,339.9618 C171.0306,342.2918 170.4146,344.7328 170.0216,347.2098 C169.6266,349.6868 169.4796,352.2088 169.5836,354.7238 C169.7796,359.7618 170.9946,364.7558 172.9766,369.4208 C174.9466,374.0938 177.6856,378.4538 180.9966,382.3008 C181.8066,383.2768 182.6886,384.1928 183.5826,385.0888 C184.4796,385.9808 185.3916,386.8548 186.3626,387.6588 C187.3256,388.4668 188.2986,389.2578 189.3196,389.9588 C189.8286,390.3108 190.3306,390.6628 190.8466,390.9738 C191.3426,391.2698 191.9146,391.6238 192.2946,391.7668 C195.4926,392.9758 197.1056,396.5488 195.8966,399.7468 C194.6886,402.9448 191.1156,404.5578 187.9176,403.3488 C187.1436,403.0568 186.4636,402.6268 185.8936,402.0968 L185.2026,401.4468 Z" id="Fill-8" fill="#FFFFFF"></path>
            <path d="M335.1245,324.0323 C335.4535,316.2463 332.6245,308.3123 327.2205,302.2903 C324.5275,299.2843 321.2125,296.7813 317.4995,295.0053 C313.7825,293.2523 309.6755,292.2013 305.4785,292.0723 C301.2825,291.8943 297.0515,292.6403 293.1155,294.1813 C289.1745,295.7223 285.5895,298.1483 282.5675,301.1213 C279.5925,304.1493 277.2235,307.7573 275.6425,311.6753 C274.0665,315.6173 273.3675,319.7943 273.4525,324.0723 C273.5515,328.1963 274.5485,332.3853 276.2585,336.1333 C277.9875,339.8963 280.4855,343.2643 283.4885,346.0213 C286.5015,348.7723 290.0295,350.8983 293.7905,352.2533 C295.6705,352.9333 297.6085,353.4213 299.5685,353.7143 C300.5475,353.8613 301.5335,353.9583 302.5195,354.0083 C303.0105,354.0333 303.5125,354.0413 303.9935,354.0483 L304.6795,354.0463 L305.5445,354.0283 C313.2925,353.7243 320.9045,350.2833 326.1315,344.6863 C328.7745,341.9123 330.9215,338.7023 332.4855,335.2163 C333.2805,333.4783 333.9025,331.6543 334.3445,329.7813 C334.5665,328.8433 334.7435,327.8943 334.8735,326.9343 C334.9375,326.4573 334.9905,325.9663 335.0335,325.4953 L335.0865,324.8253 L335.1245,323.9623 L335.1245,324.0323 Z M346.2495,324.1023 L346.2655,324.9673 L346.2555,326.0243 C346.2375,326.7053 346.2095,327.3633 346.1635,328.0333 C346.0695,329.3673 345.9105,330.7003 345.6855,332.0243 C345.2325,334.6713 344.5125,337.2813 343.5405,339.8003 C341.5785,344.8323 338.4935,349.4263 334.6165,353.1713 C330.7265,356.9033 326.1135,359.8513 321.1215,361.7943 C318.6295,362.7783 316.0295,363.4623 313.4045,363.9093 C312.0915,364.1303 310.7695,364.2853 309.4455,364.3753 C308.7835,364.4203 308.1215,364.4473 307.4605,364.4623 L306.4685,364.4703 L305.4115,364.4533 L304.5485,364.4133 L303.5075,364.3483 C302.8375,364.2943 302.1895,364.2223 301.5335,364.1363 C300.2265,363.9623 298.9285,363.7243 297.6475,363.4233 C295.0855,362.8213 292.5905,361.9673 290.2135,360.8803 C285.4555,358.7093 281.1795,355.6053 277.6745,351.8353 C270.6195,344.3023 266.8025,334.1173 267.0865,323.9913 C267.2635,314.0223 271.4825,304.0993 278.5965,297.1493 C285.5975,290.0603 295.4165,285.8673 305.4785,285.5753 C315.5305,285.2243 325.8915,288.9033 333.5285,295.9813 C337.3635,299.4883 340.5045,303.8083 342.7035,308.6113 C344.9085,313.4133 346.0895,318.7123 346.2495,324.0323 L346.2495,324.1023 Z" id="Fill-10" fill="#FFFFFF"></path>
            <polygon id="Fill-12" fill="#FFFFFF" points="331.2182 302.2095 304.3782 323.2985 342.3372 318.3135 338.1182 306.8105"></polygon>
        </g>
    </g>
</svg>
