<?xml version="1.0" encoding="UTF-8" standalone="no"?>
<svg width="550px" height="440px" viewBox="0 0 550 440" version="1.1" xmlns="http://www.w3.org/2000/svg" xmlns:xlink="http://www.w3.org/1999/xlink">
    <!-- Generator: Sketch 40.1 (33804) - http://www.bohemiancoding.com/sketch -->
    <title>eye-blue-hover</title>
    <desc>Created with Sketch.</desc>
    <defs>
        <polygon id="path-1" points="315.0134 8 257.8774 8 257.8774 182.2758 315.0134 182.2758 315.0134 8"></polygon>
    </defs>
    <g id="Page-1" stroke="none" stroke-width="1" fill="none" fill-rule="evenodd">
        <g id="eye-blue-hover">
            <path d="M456.7627,344.9368 C456.7317,344.8348 456.7107,344.7308 456.6767,344.6328 C456.4627,344.0708 456.1507,343.5798 455.7867,343.1278 L454.7217,341.7508 C453.2907,339.9198 451.8277,338.1088 450.3407,336.3168 C447.3647,332.7318 444.2897,329.2218 441.1317,325.7898 C434.8117,318.9268 428.1657,312.3568 421.1857,306.1718 C414.1957,300.0008 406.8877,294.1938 399.2597,288.8638 C391.6397,283.5238 383.6727,278.6928 375.3937,274.5158 C358.8677,266.1388 341.0157,260.3318 322.7047,258.5258 C318.1147,258.0628 313.5717,257.8618 308.9577,257.9108 C304.4087,257.9658 299.8577,258.3528 295.3427,259.0198 C286.3067,260.3568 277.4257,262.8378 268.8267,266.1038 C260.2247,269.3758 251.8977,273.4318 243.8577,278.0188 C235.8177,282.6078 228.0357,287.6918 220.5237,293.1698 C205.4957,304.1308 191.4827,316.5378 178.3177,329.7738 C171.7367,336.3968 165.3987,343.2598 159.0937,350.1518 C152.8007,357.0468 146.6527,364.1208 141.0417,371.5278 C139.6417,373.3728 138.2907,375.2638 137.0427,377.1408 C136.7327,377.6078 136.4287,378.0748 136.1527,378.5218 L135.7777,379.1508 C135.6687,379.3308 135.5857,379.5438 135.7197,379.2318 C135.6717,379.4088 135.7277,379.3838 135.7197,379.2018 C135.7167,379.0198 135.6137,378.8238 135.6387,378.8498 C135.6737,378.8998 136.2937,379.3718 137.0797,379.7088 C137.8737,380.0708 138.8297,380.4048 139.8307,380.6958 C141.8507,381.2578 144.0517,381.6848 146.2767,382.0478 C150.7467,382.7508 155.3677,383.1858 160.0057,383.4738 C164.6467,383.7658 169.3227,383.9228 174.0147,383.9108 L174.0207,383.9108 L174.2947,383.9408 C175.1197,384.0328 175.9017,384.3198 176.5627,384.7288 C182.0717,388.1708 187.7567,391.3878 193.5567,394.4008 C199.3727,397.3838 205.3097,400.1538 211.3367,402.7178 C223.3927,407.8468 235.8187,412.1538 248.4947,415.5328 C261.1837,418.8568 274.1257,421.2318 287.1757,422.5028 C293.7067,423.1478 300.2437,423.4598 306.7977,423.4978 C313.2877,423.5218 319.7867,423.0828 326.2397,422.2228 C339.1517,420.5208 351.8487,417.0608 364.0487,412.2918 C376.2617,407.5348 387.9977,401.4978 399.1867,394.5588 C410.3577,387.5848 420.9747,379.6978 431.0217,371.1418 C436.0437,366.8618 440.9217,362.4098 445.6347,357.7928 C447.9907,355.4868 450.3047,353.1368 452.5677,350.7458 L454.2527,348.9428 C454.8047,348.3348 455.3947,347.7588 455.8377,347.0548 C456.2437,346.4278 456.5457,345.7188 456.7627,344.9368 L456.7627,344.9368 Z M466.1267,349.2388 C464.7837,349.3458 463.8057,349.6028 462.9037,349.9638 C462.0227,350.3328 461.2587,350.7888 460.5947,351.3328 C459.9217,351.8678 459.3887,352.5258 458.8107,353.1428 L457.0847,355.0008 C454.7717,357.4628 452.4107,359.8758 450.0097,362.2448 C445.2067,366.9808 440.2407,371.5448 435.1227,375.9368 C424.8897,384.7188 414.0487,392.8128 402.6197,400.0318 C391.2117,407.2718 379.1857,413.6238 366.5807,418.6878 C353.9807,423.7398 340.8007,427.5178 327.2847,429.5728 C320.5297,430.5908 313.6947,431.1728 306.8417,431.2658 C300.0537,431.3598 293.2477,431.1048 286.4857,430.6208 C272.9457,429.6288 259.5027,427.4888 246.2987,424.3738 C219.8417,418.2428 194.3537,408.3318 170.4367,395.0468 L172.9787,395.8658 L172.9727,395.8648 C163.5517,394.1858 154.1377,392.8668 144.5737,390.6938 C142.1737,390.1388 139.7667,389.5218 137.2887,388.6588 C136.0447,388.2298 134.7817,387.7488 133.4557,387.0728 C132.1467,386.3618 130.6867,385.5808 129.2537,383.7628 C128.5557,382.8608 127.9437,381.5548 127.7997,380.1988 C127.6407,378.8418 127.8987,377.6248 128.2317,376.6888 C128.5517,375.8148 128.7767,375.5198 128.9567,375.1878 L129.5047,374.3078 C129.8597,373.7578 130.2097,373.2448 130.5627,372.7358 C131.9717,370.7148 133.4077,368.7998 134.8347,366.8708 C140.5727,359.2048 146.4827,351.7488 152.6417,344.4728 C158.8037,337.2048 165.3817,330.3008 172.1517,323.5958 C185.7007,310.1978 200.1287,297.6258 215.6867,286.4718 C231.2307,275.3438 247.9937,265.6108 266.1707,258.9618 C275.2477,255.6558 284.6777,253.1518 294.3327,251.8578 C299.1587,251.2118 304.0347,250.8638 308.9177,250.8718 C313.7387,250.8918 318.6297,251.1468 323.4207,251.6798 C342.6947,253.7688 361.2747,260.0438 378.2837,268.8698 C395.3057,277.7408 410.9867,288.9108 425.2597,301.5638 C432.4127,307.8768 439.2557,314.5318 445.7497,321.5158 C448.9987,325.0058 452.1607,328.5768 455.2327,332.2328 C456.7677,334.0608 458.2787,335.9118 459.7627,337.7898 L460.8707,339.2038 C461.2297,339.6838 461.6317,340.1298 462.1297,340.5078 C463.1587,341.2688 464.3447,341.7908 466.4177,341.9818 C468.4147,342.1668 469.8847,343.9348 469.7007,345.9328 C469.5347,347.7188 468.1027,349.0828 466.3727,349.2198 L466.1267,349.2388 Z" id="Fill-1" fill="#FFFFFF"></path>
            <path d="M141.3936,285.1238 C150.9056,273.7228 161.4466,263.0768 173.0186,253.6578 C184.5866,244.2408 197.2156,236.0468 210.7266,229.6198 C224.2236,223.1808 238.5916,218.5408 253.2986,215.9758 C260.6496,214.6858 268.0806,213.9038 275.5166,213.6128 C279.2316,213.4638 282.9616,213.4398 286.6626,213.5338 C290.4086,213.6288 294.1026,213.8558 297.8026,214.1948 C312.5876,215.5598 327.0816,218.6828 341.1636,222.9068 C355.2486,227.1438 368.9446,232.4908 382.2276,238.6558 C395.5076,244.8308 408.3876,251.8228 420.7726,259.6028 C426.9606,263.4978 433.0266,267.5918 438.9166,271.9338 C444.8036,276.2798 450.5316,280.8578 455.9316,285.8418 C456.5746,286.4358 456.6146,287.4368 456.0216,288.0808 C455.4376,288.7128 454.4576,288.7618 453.8146,288.1988 L453.8086,288.1938 C448.4076,283.4558 442.6566,279.0888 436.7476,274.9558 C430.8346,270.8238 424.7476,266.9348 418.5436,263.2468 C406.1286,255.8798 393.2466,249.3038 380.0246,243.5598 C366.8006,237.8238 353.2246,232.9208 339.3766,229.1358 C325.5356,225.3608 311.3996,222.7008 297.2046,221.7548 C283.0656,220.8098 268.7426,221.7278 254.9036,224.5138 C241.0436,227.2968 227.6186,232.0148 215.0446,238.4078 C202.4606,244.7898 190.7336,252.8238 179.9996,262.0238 C169.2576,271.2308 159.5106,281.5778 150.6886,292.7138 C148.6306,295.3118 144.8566,295.7488 142.2586,293.6908 C139.6616,291.6328 139.2236,287.8588 141.2816,285.2618 C141.3066,285.2288 141.3326,285.1968 141.3586,285.1648 L141.3936,285.1238 Z" id="Fill-3" fill="#FFFFFF"></path>
            <path d="M368.5635,262.2752 C367.1605,264.8752 367.6915,265.8162 368.4115,266.4752 C369.0595,267.2252 369.6965,267.9832 370.3215,268.7522 C371.5635,270.2952 372.7605,271.8742 373.9155,273.4832 C376.1955,276.7202 378.3385,280.0602 380.2005,283.5632 C383.9505,290.5462 386.8605,298.0162 388.7025,305.7912 C390.5375,313.5672 391.3135,321.6162 390.9155,329.6592 C390.5035,337.6992 388.8395,345.6972 386.0505,353.2802 C380.4075,368.4252 370.4515,381.9312 357.6075,391.7072 C344.7855,401.4972 329.1715,407.5932 313.1545,408.9372 C297.1685,410.3612 280.8165,407.2512 266.5825,399.9762 C252.3425,392.7482 240.2035,381.4782 232.1745,367.7942 C224.0795,354.1362 220.1385,338.2762 220.4635,322.6152 C220.5185,318.7192 220.8415,314.7972 221.4365,310.9362 C221.9985,307.0652 222.8135,303.2302 223.9035,299.4732 C225.0095,295.7212 226.3025,292.0202 227.8635,288.4262 C228.6435,286.6292 229.4875,284.8592 230.3925,283.1202 C230.8465,282.2512 231.3145,281.3902 231.7945,280.5352 C231.9535,279.4622 234.1235,279.7112 230.0625,275.9602 L240.2055,282.3732 C235.1285,280.2402 236.3045,282.1212 235.4945,282.6972 C235.0155,283.4952 234.5465,284.3002 234.0915,285.1122 C233.1845,286.7392 232.3335,288.3982 231.5425,290.0862 C229.9575,293.4612 228.5965,296.9502 227.5645,300.5392 C226.5165,304.1222 225.7095,307.7772 225.1805,311.4752 C224.6845,315.1812 224.4515,318.9032 224.4715,322.6512 C224.5755,337.5812 229.1945,352.3212 237.2615,364.6462 C241.2755,370.8262 246.1325,376.4272 251.6065,381.3042 C257.0995,386.1612 263.2375,390.2722 269.8215,393.4402 C282.9805,399.8112 297.8955,402.2942 312.3465,400.6932 C326.7875,399.1262 340.6995,393.4702 352.0545,384.5182 C363.4455,375.6302 372.3725,363.5952 377.3505,350.0462 C379.8995,343.2992 381.5205,336.2102 382.2665,329.0032 C383.0155,321.7992 382.8635,314.4402 381.6325,307.2332 C380.4235,300.0232 378.1575,292.9452 374.8145,286.3822 C373.1295,283.1102 371.2525,279.9252 369.0815,276.9472 C368.0065,275.4502 366.8695,273.9992 365.6765,272.5952 C365.0805,271.8932 364.4735,271.2012 363.8555,270.5182 C363.3045,269.7502 362.5405,269.2842 359.8235,270.4972 L368.5635,262.2752 Z" id="Fill-5" fill="#FFFFFF"></path>
            <path d="M184.9541,401.8948 C184.2461,401.2308 183.7681,400.7248 183.2261,400.1478 C182.7071,399.5838 182.1921,399.0398 181.7001,398.4768 C180.7201,397.3498 179.7541,396.2418 178.8391,395.0958 C176.9991,392.8158 175.2811,390.4748 173.6711,388.0688 C170.4671,383.2488 167.7341,378.1418 165.6111,372.7688 C163.4961,367.3938 162.0201,361.7678 161.1181,356.0148 C160.6691,353.1358 160.3581,350.2238 160.1771,347.2838 C159.9921,344.3408 159.9681,341.3798 159.9211,338.3668 L159.9181,338.1538 C159.8651,334.7588 162.5751,331.9638 165.9701,331.9118 C169.3651,331.8588 172.1601,334.5688 172.2121,337.9628 C172.2251,338.8188 172.0501,339.6648 171.7461,340.4098 C170.7821,342.7398 170.1661,345.1808 169.7731,347.6578 C169.3781,350.1348 169.2311,352.6568 169.3351,355.1718 C169.5311,360.2098 170.7461,365.2038 172.7281,369.8688 C174.6981,374.5418 177.4371,378.9018 180.7481,382.7488 C181.5581,383.7248 182.4401,384.6408 183.3341,385.5368 C184.2311,386.4288 185.1431,387.3028 186.1141,388.1068 C187.0781,388.9148 188.0501,389.7058 189.0711,390.4068 C189.5801,390.7588 190.0821,391.1108 190.5981,391.4218 C191.0941,391.7178 191.6661,392.0718 192.0461,392.2148 C195.2441,393.4238 196.8571,396.9968 195.6481,400.1948 C194.4401,403.3928 190.8671,405.0058 187.6691,403.7968 C186.8951,403.5048 186.2151,403.0748 185.6451,402.5448 L184.9541,401.8948 Z" id="Fill-7" fill="#FFFFFF"></path>
            <path d="M354.876,305.4803 C355.205,297.6943 352.376,289.7603 346.972,283.7383 C344.279,280.7323 340.964,278.2293 337.251,276.4533 C333.534,274.7003 329.427,273.6493 325.23,273.5203 C321.033,273.3423 316.803,274.0883 312.867,275.6293 C308.926,277.1703 305.342,279.5963 302.319,282.5693 C299.344,285.5973 296.975,289.2053 295.394,293.1233 C293.818,297.0653 293.119,301.2423 293.204,305.5203 C293.303,309.6443 294.3,313.8333 296.01,317.5813 C297.739,321.3443 300.237,324.7123 303.24,327.4693 C306.254,330.2203 309.781,332.3463 313.542,333.7013 C315.422,334.3813 317.36,334.8693 319.32,335.1623 C320.299,335.3093 321.285,335.4063 322.271,335.4563 C322.762,335.4813 323.264,335.4893 323.745,335.4963 L324.431,335.4943 L325.296,335.4763 C333.044,335.1723 340.656,331.7313 345.883,326.1343 C348.526,323.3603 350.673,320.1503 352.237,316.6643 C353.032,314.9263 353.654,313.1023 354.096,311.2293 C354.318,310.2923 354.495,309.3423 354.625,308.3823 C354.689,307.9053 354.742,307.4143 354.785,306.9433 L354.838,306.2733 L354.876,305.4103 L354.876,305.4803 Z M366.001,305.5503 L366.017,306.4153 L366.007,307.4723 C365.989,308.1533 365.961,308.8113 365.915,309.4813 C365.821,310.8153 365.662,312.1483 365.436,313.4723 C364.984,316.1193 364.264,318.7293 363.292,321.2483 C361.33,326.2803 358.245,330.8743 354.368,334.6193 C350.478,338.3513 345.865,341.2993 340.873,343.2423 C338.381,344.2263 335.781,344.9103 333.156,345.3573 C331.843,345.5783 330.521,345.7333 329.197,345.8233 C328.535,345.8683 327.873,345.8953 327.212,345.9103 L326.22,345.9183 L325.163,345.9013 L324.3,345.8613 L323.259,345.7963 C322.589,345.7423 321.941,345.6703 321.285,345.5843 C319.978,345.4103 318.68,345.1723 317.398,344.8713 C314.837,344.2703 312.342,343.4153 309.965,342.3283 C305.207,340.1573 300.931,337.0533 297.426,333.2833 C290.371,325.7503 286.554,315.5653 286.838,305.4393 C287.015,295.4703 291.234,285.5473 298.348,278.5973 C305.35,271.5083 315.168,267.3153 325.23,267.0233 C335.282,266.6723 345.643,270.3513 353.28,277.4293 C357.115,280.9363 360.256,285.2563 362.455,290.0593 C364.66,294.8613 365.841,300.1603 366.001,305.4803 L366.001,305.5503 Z" id="Fill-9" fill="#FFFFFF"></path>
            <polygon id="Fill-11" fill="#FFFFFF" points="350.9697 283.6575 324.1297 304.7465 362.0887 299.7615 357.8697 288.2585"></polygon>
            <polygon id="Fill-13" fill="#FFFFFF" points="20 104.388 47.5 155.388 63.5 144.388 93 196.388 114 188.888 137.5 236.888 122 167.888 92 174.388 65.5 130.388 47.5 140.388"></polygon>
            <polygon id="Fill-15" fill="#FFFFFF" points="539.5 100.388 512 151.388 496 140.388 466.5 192.388 445.5 184.888 422 232.888 437.5 163.888 467.5 170.388 494 126.388 512 136.388"></polygon>
            <mask id="mask-2" fill="white">
                <use xlink:href="#path-1"></use>
            </mask>
            <g id="Clip-18"></g>
            <polygon id="Fill-17" fill="#FFFFFF" points="311.9844 7.9998 315.0134 65.8628 295.6274 64.7858 297.4674 124.5428 275.6294 129.0558 280.5154 182.2758 257.8774 115.2778 286.8814 105.2308 286.6384 53.8678 307.2134 53.0498"></polygon>
        </g>
    </g>
</svg>
