<?xml version="1.0" encoding="UTF-8" standalone="no"?>
<svg width="550px" height="440px" viewBox="0 0 550 440" version="1.1" xmlns="http://www.w3.org/2000/svg" xmlns:xlink="http://www.w3.org/1999/xlink">
    <!-- Generator: Sketch 40.1 (33804) - http://www.bohemiancoding.com/sketch -->
    <title>eye-red</title>
    <desc>Created with Sketch.</desc>
    <defs></defs>
    <g id="Page-1" stroke="none" stroke-width="1" fill="none" fill-rule="evenodd">
        <g id="eye-red" fill="#FFFFFF">
            <g id="Page-1" transform="translate(113.000000, 117.000000)">
                <path d="M330.9864,136.8843 C330.4404,136.5923 329.9704,136.2433 329.5504,135.8663 C329.1114,135.4633 328.7404,135.0113 328.4014,134.5333 L327.3474,133.1243 C325.9324,131.2493 324.4824,129.3913 323.0064,127.5513 C320.0544,123.8723 316.9984,120.2663 313.8554,116.7373 C307.6124,109.6383 300.9954,102.8713 294.1124,96.4003 C280.3434,83.4803 265.1874,71.9693 248.5934,63.0883 C232.0534,54.1993 213.8654,48.1513 195.1824,46.8023 C192.8514,46.6253 190.5114,46.5163 188.2024,46.4743 C185.8164,46.4213 183.5434,46.4913 181.2094,46.6213 C176.5684,46.8903 171.9384,47.4853 167.3504,48.3553 C158.1714,50.1053 149.1914,53.0023 140.5044,56.6143 C123.1454,63.9483 106.9444,74.0073 91.7354,85.3143 C76.5354,96.6703 62.2444,109.2683 48.6104,122.5273 C41.8414,129.2103 35.1764,135.9933 28.4644,142.7443 C25.1184,146.1293 21.7954,149.5423 18.5824,153.0423 C16.9924,154.8053 15.3974,156.5633 13.8864,158.3753 C12.3964,160.1853 10.8604,162.0193 9.5974,163.8283 L9.1634,164.4723 C9.0364,164.6643 8.9044,164.8853 8.8864,164.9213 C9.1024,164.3843 8.8384,165.0773 8.7594,165.3013 L8.4564,166.1213 C8.0894,167.1163 7.9014,167.8913 7.9134,168.3203 C7.9544,168.7533 7.9764,168.7503 8.2034,169.0373 C8.4384,169.3083 9.0174,169.7263 9.7924,170.0723 C11.3584,170.7923 13.4854,171.2793 15.6454,171.5573 C17.8224,171.8503 20.0974,171.9993 22.3944,172.0673 C26.9984,172.1423 31.6964,171.9153 36.3904,171.4713 C41.0884,171.0223 45.7954,170.4093 50.4814,169.5463 L50.4834,169.5463 L50.7844,169.5283 C52.0164,169.4543 53.1794,169.7913 54.1384,170.4183 C65.6024,177.9073 76.8924,185.2673 88.5674,191.9863 C100.2364,198.6803 112.2084,204.7843 124.5934,209.8163 C136.9894,214.7903 149.8024,218.6923 162.8914,220.8423 C169.4344,221.9153 176.0284,222.5443 182.6454,222.6413 C189.2344,222.7173 195.8544,222.2413 202.4034,221.2693 C215.5084,219.3093 228.3464,215.3613 240.5354,209.9023 C252.7384,204.4533 264.3514,197.6163 275.3014,189.8283 C286.2574,182.0413 296.5844,173.3323 306.2904,163.9783 C311.1404,159.2993 315.8364,154.4533 320.3584,149.4553 C322.6184,146.9563 324.8364,144.4183 326.9984,141.8413 C328.3554,140.2183 329.6934,138.5523 330.9864,136.8843 L330.9864,136.8843 Z M337.7354,138.3663 C333.6134,143.6703 329.4434,148.7183 325.0264,153.6523 C320.4364,158.7853 315.6734,163.7613 310.7464,168.5703 C300.8874,178.1853 290.3784,187.1613 279.1654,195.2323 C267.9514,203.2873 256.0424,210.4743 243.3984,216.2463 C230.7594,221.9923 217.3984,226.3973 203.5644,228.6683 C189.7404,230.9713 175.4874,230.9823 161.6484,228.9993 C147.7794,227.0323 134.2764,223.2323 121.2814,218.3473 C95.2004,208.7053 71.1834,194.5143 47.8374,180.6313 L51.4924,181.5033 L51.4904,181.5033 C41.6794,181.4013 31.9114,181.5973 21.9064,180.7513 C19.4004,180.5453 16.8754,180.2623 14.3014,179.7833 C13.0134,179.5453 11.7164,179.2453 10.3884,178.8743 C9.0604,178.5023 7.7054,178.0463 6.3054,177.3643 C4.9204,176.6743 3.4214,175.7693 2.0924,174.1973 C1.4374,173.4173 0.8604,172.4503 0.4974,171.4013 C0.1274,170.3533 -0.0136,169.2573 0.0014,168.2693 C0.0354,166.2813 0.5544,164.7123 0.9934,163.4513 L1.3104,162.5763 C1.4564,162.2433 1.3324,162.3443 1.8344,161.2763 C2.0954,160.7793 2.2824,160.4883 2.4804,160.1753 L3.0484,159.3193 C4.5344,157.1773 5.9594,155.2143 7.4594,153.2553 C8.9474,151.3043 10.4124,149.3483 11.9234,147.4323 C14.9124,143.5723 17.9504,139.7613 21.0784,136.0273 C27.3214,128.5433 34.0714,121.5103 41.1274,114.8013 C48.1454,108.0533 55.3924,101.5363 62.9044,95.3253 C70.3894,89.0813 78.1744,83.1863 86.1814,77.5983 C102.2094,66.4703 119.2634,56.5733 137.6314,49.4743 C146.7944,45.9033 156.2894,43.0683 166.0414,41.3003 C170.9144,40.4123 175.8534,39.8133 180.8244,39.5603 C183.2944,39.4283 185.8354,39.4053 188.2604,39.4333 C190.7614,39.4643 193.2314,39.5683 195.6994,39.7413 C205.5764,40.4413 215.3434,42.3043 224.8254,45.0453 C234.2974,47.8323 243.4994,51.4743 252.3174,55.8533 C269.9694,64.6213 286.0764,76.1493 300.7444,89.1293 C308.0814,95.6323 314.9904,102.5923 321.5734,109.8443 C324.8404,113.4933 328.0184,117.2223 331.0994,121.0403 C332.6394,122.9503 334.1564,124.8823 335.6454,126.8443 L336.7564,128.3213 C337.1364,128.8083 337.4774,129.3253 337.7474,129.8953 C338.2804,131.0493 338.6014,132.3173 338.3514,134.0653 L337.7354,138.3663 Z" id="Fill-1"></path>
                <path d="M18.5948,72.7686 L19.5218,71.6756 L20.5548,70.5036 C21.2318,69.7516 21.9198,69.0196 22.6158,68.3066 C24.0098,66.8796 25.4328,65.5116 26.8858,64.2026 C29.7878,61.5806 32.7838,59.1516 35.8418,56.8576 C41.9598,52.2746 48.3068,48.1926 54.7828,44.4136 C67.7428,36.8736 81.2038,30.5076 94.9478,24.9196 C108.6978,19.3496 122.7478,14.5846 137.0488,10.6646 C151.3508,6.7586 165.9088,3.6836 180.7068,1.8106 C188.1068,0.8856 195.5658,0.2626 203.0748,0.0676 C210.5668,-0.1314 218.1908,0.1156 225.7308,1.0326 C240.8258,2.8026 255.7418,7.3356 269.1778,14.5126 C282.6668,21.6356 294.5278,31.1926 305.2628,41.3696 C316.0448,51.5326 325.8238,62.3856 336.3058,72.0236 L336.3218,72.0376 C338.2628,73.8236 338.3898,76.8446 336.6048,78.7866 C334.8348,80.7116 331.8488,80.8506 329.9048,79.1156 C318.7918,69.1826 308.8828,58.4946 298.3098,48.8356 C287.7878,39.1536 276.5788,30.4556 264.1628,24.1366 C251.7878,17.7716 238.2958,13.8866 224.4398,12.4606 C210.6048,11.0056 196.3828,11.9116 182.3108,13.8566 C168.2288,15.8496 154.2568,19.0126 140.5178,22.9866 C126.7798,26.9716 113.2628,31.7816 100.0938,37.3466 C86.9368,42.9226 74.0928,49.2456 61.9738,56.5416 C55.9248,60.1916 50.0608,64.0976 44.5828,68.3316 C39.1148,72.5836 34.0288,77.1126 29.9578,82.1716 C27.4048,85.3456 22.7618,85.8486 19.5888,83.2946 C16.4148,80.7416 15.9118,76.0996 18.4648,72.9256 C18.4968,72.8856 18.5298,72.8466 18.5618,72.8076 L18.5948,72.7686 Z" id="Fill-3"></path>
                <path d="M244.5176,52.9732 C245.2676,53.5442 245.9926,54.3002 246.6596,55.0152 C247.3316,55.7432 247.9936,56.4822 248.6436,57.2322 C249.9406,58.7342 251.1866,60.2812 252.3796,61.8702 C254.7646,65.0512 256.9306,68.4022 258.8556,71.8952 C262.7076,78.8772 265.6076,86.4212 267.3906,94.2502 C269.1386,102.0902 269.7926,110.1732 269.2996,118.2222 C268.7866,126.2672 267.0916,134.2542 264.2856,141.8322 C258.6246,156.9682 248.6606,170.4652 235.8066,180.2122 C222.9706,189.9712 207.3666,196.0132 191.3756,197.3512 C175.4166,198.7332 159.0996,195.6842 144.8436,188.4752 C130.5876,181.2762 118.4226,170.1522 109.9196,156.6492 C101.3696,143.1742 96.6486,127.2232 96.6856,111.1492 C96.6956,107.1782 96.9786,103.1442 97.5436,99.1802 C98.1346,95.2132 99.0166,91.2902 100.1616,87.4482 C101.2926,83.6012 102.7556,79.8582 104.4616,76.2392 C105.3136,74.4282 106.2296,72.6492 107.2056,70.9062 C107.6946,70.0342 108.1986,69.1722 108.7146,68.3172 C109.4946,67.6382 108.7376,65.9522 112.7046,67.2972 L114.0356,68.1382 C115.5176,69.6342 115.8186,70.3492 115.7126,70.8202 C115.5146,71.2342 115.2656,71.6172 115.0466,72.0182 C114.6026,72.8162 114.1686,73.6192 113.7496,74.4292 C112.9136,76.0522 112.1336,77.7022 111.4146,79.3762 C109.9756,82.7262 108.7836,86.1722 107.7766,89.6662 C106.7836,93.1652 106.0456,96.7332 105.5446,100.3332 C105.0176,103.9372 104.7456,107.5472 104.7216,111.2212 C104.5356,125.7372 108.3746,140.3862 115.9856,152.8942 C123.5506,165.4232 134.8606,175.6892 148.0306,182.0442 C154.6046,185.2432 161.6206,187.5082 168.8096,188.7532 C175.9976,189.9932 183.3656,190.1732 190.5956,189.3842 C205.0636,187.8092 218.9836,182.1002 230.3266,173.1162 C241.7066,164.1992 250.6276,152.1562 255.5866,138.5992 C258.1176,131.8452 259.7086,124.7462 260.3526,117.5432 C261.0076,110.3452 260.7326,103.0202 259.4156,95.8772 C258.1476,88.7222 255.8706,81.7182 252.6296,75.1532 C251.0086,71.8712 249.1556,68.6982 247.0866,65.6632 C246.0506,64.1462 244.9626,62.6642 243.8256,61.2192 C243.2536,60.4982 242.6716,59.7852 242.0786,59.0812 C241.4736,58.3692 240.9046,57.7182 240.3396,56.9022 L244.5176,52.9732 Z" id="Fill-5"></path>
                <path d="M67.525,191.3755 C66.085,190.2455 64.926,189.2365 63.683,188.1645 C62.476,187.0905 61.273,186.0365 60.11,184.9395 C57.774,182.7595 55.522,180.5105 53.359,178.1695 C49.054,173.4785 45.092,168.4015 41.945,162.6955 C38.818,157.0055 36.568,150.5965 36.003,143.7845 C35.717,140.3895 35.854,136.9225 36.387,133.5045 C36.914,130.0815 37.864,126.7385 38.961,123.4275 L39.043,123.1785 C40.107,119.9675 43.573,118.2265 46.784,119.2905 C49.995,120.3545 51.735,123.8195 50.672,127.0305 C50.431,127.7575 50.052,128.4255 49.596,128.9855 C46.239,133.0845 44.372,138.1945 44.257,143.4715 C44.197,146.1105 44.597,148.7825 45.348,151.3885 C46.121,153.9905 47.255,156.5185 48.645,158.9295 C51.432,163.7585 55.243,168.0885 59.552,171.8435 C61.703,173.7275 63.998,175.4635 66.388,177.0425 C67.588,177.8245 68.795,178.5925 70.043,179.2745 C71.257,179.9565 72.593,180.6525 73.726,181.1025 C76.848,182.3395 78.375,185.8735 77.138,188.9955 C75.9,192.1165 72.366,193.6445 69.245,192.4065 C68.696,192.1895 68.197,191.9005 67.754,191.5575 L67.525,191.3755 Z" id="Fill-7"></path>
                <path d="M211.9209,108.9366 C211.8629,106.7046 211.8169,104.4676 211.4849,102.2436 C211.1529,100.0236 210.5719,97.8376 209.7919,95.7166 C208.2279,91.4746 205.7959,87.5106 202.6699,84.1366 C199.5579,80.7506 195.7559,77.9456 191.5199,75.9786 C187.2889,73.9996 182.6199,72.8926 177.8709,72.7286 C173.1219,72.5726 168.3249,73.3676 163.8659,75.1226 C159.3919,76.8416 155.3019,79.5566 151.8449,82.9106 C148.4079,86.2926 145.7709,90.4806 144.1879,94.9856 C142.6119,99.5256 142.0349,104.2196 142.2829,108.9866 C142.5409,113.5486 143.4889,118.2006 145.3159,122.4176 C147.1449,126.6456 149.7709,130.5266 153.0469,133.7586 C156.3039,137.0056 160.1899,139.6206 164.4339,141.3786 C168.7009,143.1406 173.2019,144.0556 177.9259,144.0626 C180.1189,144.0646 182.5009,143.8466 184.7319,143.4036 C186.9849,142.9546 189.1879,142.2636 191.3029,141.3726 C195.5329,139.5886 199.4029,136.9576 202.6249,133.6916 C205.8429,130.4136 208.2699,126.4136 209.8059,122.1616 C210.5769,120.0356 211.1239,117.8406 211.4669,115.6256 C211.6479,114.5186 211.7639,113.4046 211.8409,112.2886 C211.8809,111.7346 211.9059,111.1666 211.9209,110.6206 L211.9299,109.8386 L211.9209,108.8666 L211.9209,108.9366 Z M223.0459,109.0066 L223.0119,109.9786 L222.9489,111.1406 C222.8969,111.8896 222.8309,112.6146 222.7459,113.3506 C222.5719,114.8156 222.3109,116.2696 221.9879,117.7066 C221.3239,120.5786 220.3599,123.3726 219.1459,126.0356 C216.7129,131.3676 213.2539,136.1476 209.1359,140.2026 C205.0249,144.2726 200.1139,147.5266 194.7609,149.7116 C192.0849,150.8076 189.2999,151.6266 186.4669,152.1826 C183.6099,152.7476 180.8069,153.0306 177.8129,153.0356 C172.1649,153.0466 166.2939,151.9246 160.9809,149.7046 C155.6409,147.4926 150.7459,144.2236 146.6709,140.1346 C138.5299,131.9566 133.7299,120.4466 134.2299,108.8846 C134.4749,103.2786 135.9349,97.6016 138.3419,92.5606 C140.7259,87.4816 143.9749,82.8896 147.8739,78.9386 C151.7499,74.9566 156.4409,71.7866 161.5499,69.5376 C166.6709,67.3116 172.2479,66.0696 177.8709,65.9176 C183.4929,65.7496 189.1969,66.6796 194.5459,68.6826 C199.8939,70.6836 204.8729,73.7636 209.0929,77.7146 C217.5279,85.5946 222.8519,97.0856 223.0459,108.9366 L223.0459,109.0066 Z" id="Fill-9"></path>
                <polygon id="Fill-11" points="206.8301 84.3833 176.6321 108.1113 217.7411 116.2633 214.5941 89.5603"></polygon>
                <path d="M173.1109,92.8233 C173.1109,96.0333 170.5089,98.6353 167.2979,98.6353 C164.0879,98.6353 161.4849,96.0333 161.4849,92.8233 C161.4849,89.6123 164.0879,87.0103 167.2979,87.0103 C170.5089,87.0103 173.1109,89.6123 173.1109,92.8233" id="Fill-13"></path>
            </g>
        </g>
    </g>
</svg>
