<?xml version="1.0" encoding="UTF-8" standalone="no"?>
<svg width="550px" height="440px" viewBox="0 0 550 440" version="1.1" xmlns="http://www.w3.org/2000/svg" xmlns:xlink="http://www.w3.org/1999/xlink">
    <!-- Generator: Sketch 40.1 (33804) - http://www.bohemiancoding.com/sketch -->
    <title>eye-red-hover</title>
    <desc>Created with Sketch.</desc>
    <defs></defs>
    <g id="Page-1" stroke="none" stroke-width="1" fill="none" fill-rule="evenodd">
        <g id="eye-red-hover">
            <g id="Page-1" transform="translate(131.000000, 130.000000)">
                <path d="M320.5446,96.9687 C320.5446,96.9687 248.9096,190.9367 160.5446,190.9367 C72.1786,190.9367 0.5446,96.9687 0.5446,96.9687 C0.5446,96.9687 72.1786,3.0007 160.5446,3.0007 C248.9096,3.0007 320.5446,96.9687 320.5446,96.9687 L320.5446,96.9687 Z" id="Stroke-1" stroke="#FFFFFF" stroke-width="12"></path>
                <path d="M216.8776,96.9687 C216.8776,128.0807 191.6566,153.3017 160.5446,153.3017 C129.4326,153.3017 104.2116,128.0807 104.2116,96.9687 C104.2116,65.8567 129.4326,40.6357 160.5446,40.6357 C191.6566,40.6357 216.8776,65.8567 216.8776,96.9687 L216.8776,96.9687 Z" id="Stroke-3" stroke="#FFFFFF" stroke-width="12"></path>
                <polyline id="Stroke-5" stroke="#FFFFFF" stroke-width="4" points="301.5295 120.5058 271.7945 118.2188 256.2945 109.4688 244.2945 111.4688"></polyline>
                <polyline id="Stroke-7" stroke="#FFFFFF" stroke-width="4" points="284.5446 118.2187 281.5446 109.4687 271.7946 103.2187"></polyline>
                <polyline id="Stroke-9" stroke="#FFFFFF" stroke-width="4" points="271.7946 118.2187 260.8786 128.3027 253.5446 128.3027"></polyline>
                <polyline id="Stroke-11" stroke="#FFFFFF" stroke-width="4" points="320.5446 96.9687 292.8786 83.6357 274.2116 85.6357 264.5446 78.3027"></polyline>
                <path d="M292.8781,83.6357 L292.8781,94.3027" id="Stroke-13" stroke="#FFFFFF" stroke-width="4"></path>
                <polyline id="Stroke-15" stroke="#FFFFFF" stroke-width="4" points="274.7531 50.8613 249.5441 60.1403 236.8781 81.3023"></polyline>
                <path d="M260.8044,55.9956 L242.8784,47.3026" id="Stroke-17" stroke="#FFFFFF" stroke-width="4"></path>
                <polyline id="Stroke-19" stroke="#FFFFFF" stroke-width="4" points="239.9875 26.5996 229.2115 37.3026 222.7665 40.6356"></polyline>
                <path d="M229.2111,37.3022 L229.2111,53.9682" id="Stroke-21" stroke="#FFFFFF" stroke-width="4"></path>
                <polyline id="Stroke-23" stroke="#FFFFFF" stroke-width="4" points="210.4967 11.2275 199.5447 18.3025 199.5447 28.6355"></polyline>
                <path d="M199.5446,18.3022 L191.5446,18.3022" id="Stroke-25" stroke="#FFFFFF" stroke-width="4"></path>
                <polyline id="Stroke-27" stroke="#FFFFFF" stroke-width="4" points="151.8542 0.4687 151.8542 16.3027 146.8782 20.3407"></polyline>
                <path d="M151.8542,10.3022 L164.2112,18.3022" id="Stroke-29" stroke="#FFFFFF" stroke-width="4"></path>
                <polyline id="Stroke-31" stroke="#FFFFFF" stroke-width="4" points="253.5446 158.8681 244.2946 142.9691 247.2116 135.3021"></polyline>
                <path d="M244.2946,142.9687 L225.8776,144.3027" id="Stroke-33" stroke="#FFFFFF" stroke-width="4"></path>
                <polyline id="Stroke-35" stroke="#FFFFFF" stroke-width="4" points="0.5495 97.0151 39.5445 94.3021 51.5445 81.3021"></polyline>
                <polyline id="Stroke-37" stroke="#FFFFFF" stroke-width="4" points="38.4538 94.414 51.5448 103.219 63.8778 106.636"></polyline>
                <path d="M13.5461,96.9687 L21.8781,109.4687" id="Stroke-39" stroke="#FFFFFF" stroke-width="4"></path>
                <polyline id="Stroke-41" stroke="#FFFFFF" stroke-width="4" points="49.9635 45.7861 61.5445 62.6361 82.8785 62.6361"></polyline>
                <path d="M61.5446,62.6357 L61.5446,74.3027" id="Stroke-43" stroke="#FFFFFF" stroke-width="4"></path>
                <polyline id="Stroke-45" stroke="#FFFFFF" stroke-width="4" points="26.904 62.7529 38.454 70.6349 45.545 67.8979"></polyline>
                <polyline id="Stroke-47" stroke="#FFFFFF" stroke-width="4" points="79.8962 27.3037 82.8782 37.3027 94.8782 42.3027 94.8782 53.9687"></polyline>
                <path d="M94.8781,42.3022 L103.8781,42.3022" id="Stroke-49" stroke="#FFFFFF" stroke-width="4"></path>
                <polyline id="Stroke-51" stroke="#FFFFFF" stroke-width="4" points="116.7262 10.3793 120.5442 20.3413 117.3782 30.3023"></polyline>
                <path d="M120.5446,18.3022 L128.8776,20.3412" id="Stroke-53" stroke="#FFFFFF" stroke-width="4"></path>
                <path d="M82.8781,38.3022 L79.2111,50.8612" id="Stroke-55" stroke="#FFFFFF" stroke-width="4"></path>
                <path d="M120.5446,26.5996 L124.7116,28.6356" id="Stroke-57" stroke="#FFFFFF" stroke-width="4"></path>
                <path d="M229.2111,47.3022 L222.7671,48.7182" id="Stroke-59" stroke="#FFFFFF" stroke-width="4"></path>
                <path d="M249.5446,60.1406 L234.2016,60.7476" id="Stroke-61" stroke="#FFFFFF" stroke-width="4"></path>
                <path d="M250.217,50.8613 L251.841,44.5823" id="Stroke-63" stroke="#FFFFFF" stroke-width="4"></path>
                <polyline id="Stroke-65" stroke="#FFFFFF" stroke-width="4" points="86.8151 170.5283 99.3781 147.0853 96.7941 139.7183"></polyline>
                <polyline id="Stroke-67" stroke="#FFFFFF" stroke-width="4" points="89.5983 163.9687 98.3223 163.9687 109.5443 158.5947"></polyline>
                <path d="M98.3219,163.9687 L102.0449,170.1047" id="Stroke-69" stroke="#FFFFFF" stroke-width="4"></path>
                <polyline id="Stroke-71" stroke="#FFFFFF" stroke-width="4" points="92.7116 158.5947 77.2116 153.9687 74.2946 142.9687"></polyline>
                <polyline id="Stroke-73" stroke="#FFFFFF" stroke-width="4" points="29.1017 132.2519 38.4537 128.3019 45.5447 115.7189"></polyline>
                <polyline id="Stroke-75" stroke="#FFFFFF" stroke-width="4" points="38.4538 128.3022 51.5448 128.3022 61.5448 125.5102"></polyline>
                <polyline id="Stroke-77" stroke="#FFFFFF" stroke-width="4" points="129.779 189.8681 134.878 170.1041 141.545 167.0361"></polyline>
                <path d="M131.3962,182.1948 L123.2942,170.1048" id="Stroke-79" stroke="#FFFFFF" stroke-width="4"></path>
                <polyline id="Stroke-81" stroke="#FFFFFF" stroke-width="4" points="176.2111 163.9687 174.0441 170.1047 188.2111 187.9477 166.5441 182.1947"></polyline>
                <polyline id="Stroke-83" stroke="#FFFFFF" stroke-width="4" points="183.2228 180.2919 188.2108 176.1489 188.2108 170.1039"></polyline>
                <path d="M179.4909,176.1494 L169.8779,178.9864" id="Stroke-85" stroke="#FFFFFF" stroke-width="4"></path>
                <polyline id="Stroke-87" stroke="#FFFFFF" stroke-width="4" points="220.78 176.1494 222.767 158.8684 209.153 158.5944"></polyline>
                <path d="M222.7668,157.4687 L223.7948,149.7187" id="Stroke-89" stroke="#FFFFFF" stroke-width="4"></path>
                <polyline id="Fill-91" fill="#FFFFFF" points="186.4372 44.0009 160.5442 96.9689 206.4502 61.4929"></polyline>
            </g>
        </g>
    </g>
</svg>
