<?xml version="1.0" encoding="UTF-8" standalone="no"?>
<svg width="550px" height="440px" viewBox="0 0 550 440" version="1.1" xmlns="http://www.w3.org/2000/svg" xmlns:xlink="http://www.w3.org/1999/xlink">
    <!-- Generator: Sketch 40.1 (33804) - http://www.bohemiancoding.com/sketch -->
    <title>eye-green</title>
    <desc>Created with Sketch.</desc>
    <defs></defs>
    <g id="Page-1" stroke="none" stroke-width="1" fill="none" fill-rule="evenodd">
        <g id="eye-green" fill="#FFFFFF">
            <path d="M449.61994,234.000382 L449.53694,233.982382 C446.32394,233.311382 443.73294,231.977382 441.35494,230.606382 C438.97394,229.233382 436.78494,227.781382 434.67094,226.303382 C430.45394,223.341382 426.52794,220.273382 422.64694,217.212382 C414.91694,211.072382 407.36894,204.979382 399.66494,199.130382 C384.30594,187.421382 368.17594,176.824382 350.71894,168.877382 C333.29794,160.957382 314.57494,155.759382 295.45294,154.448382 C293.06994,154.275382 290.66494,154.156382 288.29094,154.091382 C285.87894,154.020382 283.50794,154.013382 281.15794,154.119382 C276.43694,154.319382 271.72094,154.862382 267.04594,155.704382 C257.68694,157.379382 248.54694,160.345382 239.70894,164.024382 C222.03894,171.506382 205.69694,182.023382 190.38494,193.738382 C175.08894,205.523382 160.75294,218.570382 147.09194,232.275382 L126.88094,253.130382 C123.52394,256.621382 120.19794,260.148382 117.01594,263.782382 C115.42294,265.596382 113.85594,267.430382 112.37694,269.309382 C111.63294,270.244382 110.89994,271.182382 110.19994,272.116382 C109.85294,272.581382 109.52494,273.058382 109.21794,273.511382 L108.79694,274.158382 L108.64294,274.415382 L108.60594,274.481382 C108.59894,274.486382 108.59794,274.513382 108.68394,274.292382 L108.48994,274.888382 L108.29394,275.594382 C108.17594,276.064382 108.08194,276.529382 108.01794,276.985382 C107.87994,277.895382 107.88794,278.766382 108.01494,279.529382 C108.28094,281.065382 108.93394,282.104382 110.16894,283.023382 C111.40094,283.947382 113.25794,284.570382 115.28094,284.913382 C117.31394,285.253382 119.52094,285.376382 121.76594,285.294382 C126.26894,285.134382 130.91094,284.383382 135.50394,283.334382 C140.09994,282.261382 144.68394,280.933382 149.18794,279.297382 L149.19094,279.296382 L149.68294,279.191382 C151.17694,278.871382 152.67194,279.210382 153.84894,279.997382 C164.97894,287.505382 177.57394,293.371382 190.43294,298.290382 C203.33094,303.202382 216.67594,307.057382 230.20694,310.009382 C243.74994,312.909382 257.50094,314.915382 271.31294,315.735382 C274.76494,315.948382 278.21894,316.094382 281.67394,316.168382 L284.24494,316.211382 L286.85294,316.225382 C288.55194,316.204382 290.24994,316.174382 291.94794,316.083382 C298.74094,315.760382 305.51494,314.855382 312.20594,313.492382 C318.88894,312.081382 325.48494,310.210382 331.95794,307.954382 C338.43194,305.697382 344.75494,302.992382 350.95594,300.032382 C363.35594,294.091382 375.21394,286.977382 386.48094,279.029382 C397.75694,271.087382 408.49194,262.367382 418.69194,253.104382 C423.77994,248.461382 428.73094,243.670382 433.45994,238.723382 C435.82194,236.250382 438.13394,233.736382 440.32794,231.194382 C441.42594,229.928382 442.48294,228.637382 443.48394,227.396382 C443.97794,226.778382 444.45594,226.156382 444.84794,225.604382 C445.04194,225.333382 445.21094,225.068382 445.29294,224.942382 C445.33594,224.882382 445.33594,224.857382 445.23494,225.075382 C445.19094,225.167382 445.15894,225.245382 445.11894,225.354382 C445.07194,225.472382 445.03094,225.591382 444.99394,225.712382 C444.94594,225.879382 444.95094,225.854382 444.87294,226.182382 C444.79994,226.509382 444.75294,226.848382 444.73694,227.184382 C444.70494,227.242382 444.72394,228.839382 445.04194,229.568382 C444.76194,229.685382 447.08794,233.727382 449.47894,233.961382 C449.53294,233.975382 449.57894,233.989382 449.61994,234.000382 M453.34994,220.823382 C453.40994,220.840382 453.48194,220.860382 453.57094,220.885382 C455.98994,221.164382 458.38294,225.233382 458.09794,225.411382 C458.41894,226.194382 458.46494,227.845382 458.41694,227.957382 C458.39194,228.347382 458.33894,228.741382 458.25694,229.122382 C458.17094,229.504382 458.15194,229.529382 458.08994,229.749382 C458.03594,229.922382 457.97794,230.094382 457.91394,230.263382 C457.83094,230.474382 457.75394,230.651382 457.66694,230.844382 C457.37594,231.458382 457.15894,231.815382 456.96994,232.126382 C456.58994,232.746382 456.25994,233.203382 455.93794,233.643382 C455.29794,234.510382 454.68994,235.265382 454.07694,236.009382 C452.86194,237.488382 451.61894,238.850382 450.37594,240.196382 C447.88494,242.878382 445.34794,245.443382 442.76994,247.954382 C437.61394,252.972382 432.29494,257.759382 426.84294,262.384382 C415.94094,271.632382 404.45394,280.156382 392.44094,287.892382 C380.41094,295.590382 367.88694,302.574382 354.76394,308.335382 C348.20594,311.221382 341.49094,313.768382 334.65994,315.983382 C327.83394,318.210382 320.85994,320.037382 313.78094,321.386382 C306.70694,322.756382 299.51994,323.646382 292.28694,323.919382 C290.47894,323.997382 288.66894,324.013382 286.85894,324.017382 L284.20294,324.005382 L281.51294,323.965382 C277.94994,323.893382 274.39194,323.747382 270.83794,323.534382 C256.62994,322.636382 242.50094,320.805382 228.55294,318.043382 C214.59394,315.323382 200.80594,311.720382 187.25094,307.233382 C180.48694,304.952382 173.75494,302.510382 167.13794,299.690382 C160.50694,296.898382 153.96094,293.810382 147.54794,290.210382 L152.20494,290.912382 L152.20194,290.913382 C147.22894,291.733382 142.25694,292.580382 137.20494,293.181382 C134.68194,293.501382 132.13594,293.741382 129.56394,293.906382 C126.99294,294.083382 124.39094,294.163382 121.74194,294.071382 C119.09494,293.973382 116.39294,293.762382 113.62094,293.146382 C110.86794,292.517382 107.96194,291.527382 105.26394,289.493382 C103.93294,288.473382 102.70394,287.143382 101.80994,285.595382 C100.90894,284.051382 100.36694,282.332382 100.14294,280.677382 C99.9159403,279.014382 99.9829403,277.414382 100.17894,275.902382 C100.28194,275.144382 100.42594,274.408382 100.60194,273.689382 C100.68994,273.329382 100.78594,272.974382 100.88894,272.623382 L101.04994,272.101382 L101.13394,271.843382 L101.26294,271.474382 C101.40794,271.112382 101.47194,271.001382 101.53594,270.870382 L101.71694,270.532382 L102.02894,269.999382 L102.60194,269.102382 L103.71194,267.480382 C104.43594,266.422382 105.16594,265.398382 105.90394,264.384382 L110.35694,258.377382 C113.34794,254.411382 116.36894,250.478382 119.47894,246.617382 C125.68694,238.885382 132.40094,231.583382 139.49094,224.663382 C146.53194,217.697382 153.80294,210.954382 161.36994,204.542382 C168.90394,198.093382 176.75094,192.001382 184.83894,186.233382 C201.01894,174.729382 218.31094,164.569382 236.92894,157.201382 C246.21994,153.497382 255.87994,150.608382 265.80294,148.805382 C270.76294,147.907382 275.79494,147.319382 280.85794,147.098382 C283.39894,146.986382 285.92694,146.990382 288.40894,147.012382 C290.92994,147.043382 293.41694,147.129382 295.91994,147.272382 C300.91694,147.558382 305.90194,148.074382 310.85394,148.816382 C315.81094,149.533382 320.73694,150.463382 325.61194,151.610382 C335.35794,153.924382 344.93194,156.971382 354.20194,160.753382 C372.78894,168.236382 390.16894,178.394382 406.53194,189.600382 C414.72794,195.186382 422.64894,201.108382 430.52094,206.802382 C434.45394,209.641382 438.37794,212.434382 442.28894,214.934382 C444.24194,216.180382 446.19494,217.347382 448.10294,218.337382 C450.01094,219.318382 451.86394,220.107382 453.34994,220.823382" id="Fill-1"></path>
            <path d="M120.688845,162.178675 C125.417845,156.361675 130.741845,151.190675 136.255845,146.468675 C141.782845,141.735675 147.549845,137.392675 153.475845,133.327675 C165.338845,125.210675 177.890845,118.293675 190.841845,112.277675 C203.800845,106.277675 217.223845,101.254675 231.044845,97.5136747 C244.851845,93.7546747 259.043845,91.1786747 273.443845,90.3076747 C280.640845,89.8816747 287.883845,89.8786747 295.115845,90.4206747 C302.206845,90.9966747 309.182845,91.7666747 316.183845,92.6946747 C330.166845,94.5376747 344.048845,97.1476747 357.750845,100.547675 C371.432845,104.017675 384.936845,108.313675 397.991845,113.802675 C404.522845,116.533675 410.890845,119.676675 417.079845,123.142675 C420.167845,124.885675 423.203845,126.728675 426.172845,128.673675 C429.136845,130.630675 432.014845,132.720675 434.810845,134.909675 C435.865845,135.735675 436.049845,137.258675 435.224845,138.312675 C434.438845,139.316675 433.019845,139.532675 431.975845,138.836675 L431.953845,138.821675 C426.282845,135.023675 420.318845,131.672675 414.173845,128.685675 C408.025845,125.701675 401.674845,123.138675 395.248845,120.785675 C382.379845,116.103675 369.076845,112.594675 355.625845,109.862675 C342.182845,107.070675 328.559845,105.119675 314.893845,103.720675 C308.069845,103.034675 301.181845,102.512675 294.382845,102.163675 C287.719845,101.832675 281.012845,102.001675 274.326845,102.566675 C260.948845,103.712675 247.663845,106.460675 234.708845,110.340675 C228.226845,112.273675 221.834845,114.527675 215.518845,116.977675 C209.200845,119.425675 202.976845,122.126675 196.865845,125.062675 C184.642845,130.924675 172.877845,137.749675 161.797845,145.411675 C156.262845,149.243675 150.914845,153.314675 145.887845,157.659675 C140.869845,162.027675 136.155845,166.580675 132.075845,171.552675 C129.491845,174.701675 124.845845,175.159675 121.696845,172.575675 C118.557845,169.999675 118.092845,165.372675 120.650845,162.224675 L120.688845,162.178675 Z" id="Fill-3"></path>
            <path d="M142.66576,209.971533 C162.11076,186.198533 185.50276,165.644533 212.45676,150.414533 C225.91976,142.824533 240.42876,136.875533 255.57576,133.139533 C270.70576,129.407533 286.55176,128.087533 302.08876,129.636533 C317.61376,131.139533 332.63976,135.220533 346.90076,140.662533 C361.17976,146.119533 374.78476,152.865533 387.94176,160.149533 C401.12076,167.398533 413.94276,175.084533 426.94276,182.215533 C433.43376,185.792533 439.98076,189.222533 446.68276,192.205533 C453.38476,195.168533 460.24576,197.739533 467.30576,199.253533 L467.31976,199.256533 C468.62776,199.536533 469.46076,200.824533 469.18076,202.133533 C468.91176,203.390533 467.70376,204.208533 466.44876,204.020533 C458.79576,202.861533 451.44476,200.549533 444.36076,197.802533 C437.26676,195.055533 430.40076,191.877533 423.63676,188.574533 C410.14676,181.895533 397.05976,174.688533 383.78376,168.061533 C370.50776,161.453533 357.13376,155.201533 343.34376,150.392533 C329.57876,145.576533 315.39776,142.189533 301.12076,141.214533 C286.87876,140.196533 272.56276,141.777533 258.79276,145.568533 C251.90776,147.457533 245.15476,149.875533 238.57976,152.739533 C232.00776,155.612533 225.60676,158.908533 219.37176,162.519533 C206.91376,169.773533 195.22376,178.442533 184.34576,188.043533 C173.40476,197.584533 163.30676,208.112533 154.08876,219.302533 L154.06576,219.329533 C151.47676,222.472533 146.82876,222.922533 143.68476,220.332533 C140.54876,217.748533 140.09576,213.114533 142.66576,209.971533" id="Fill-5"></path>
            <path d="M344.935159,156 C345.654159,156.537 346.346159,157.259 346.983159,157.939 C347.624159,158.633 348.255159,159.336 348.876159,160.05 C350.114159,161.48 351.303159,162.954 352.442159,164.468 C354.718159,167.497 356.787159,170.689 358.624159,174.018 C362.305159,180.67 365.078159,187.86 366.787159,195.324 C368.459159,202.799 369.091159,210.508 368.626159,218.186 C368.142159,225.86 366.524159,233.479 363.852159,240.709 C361.162159,247.934 357.461159,254.781 352.869159,260.963 C348.259159,267.131 342.826159,272.691 336.679159,277.316 C324.432159,286.617 309.546159,292.375 294.296159,293.641 C279.078159,294.949 263.522159,292.035 249.933159,285.16 C236.344159,278.289 224.750159,267.687 216.639159,254.816 C208.481159,241.975 203.969159,226.768 204.000159,211.438 C204.010159,207.653 204.279159,203.805 204.818159,200.026 C205.382159,196.243 206.225159,192.502 207.317159,188.839 C208.397159,185.171 209.796159,181.602 211.425159,178.152 C212.239159,176.427 213.113159,174.731 214.045159,173.07 C214.512159,172.24 214.993159,171.417 215.485159,170.603 C216.223159,169.953 215.492159,168.338 219.403159,169.702 L220.734159,170.543 C223.677159,173.447 222.000159,173.385 221.817159,174.304 C221.396159,175.061 220.986159,175.824 220.589159,176.594 C219.796159,178.134 219.059159,179.701 218.377159,181.29 C217.015159,184.47 215.888159,187.742 214.933159,191.057 C213.992159,194.377 213.293159,197.763 212.819159,201.179 C212.318159,204.599 212.060159,208.022 212.037159,211.511 C211.856159,225.282 215.487159,239.186 222.705159,251.062 C229.878159,262.957 240.617159,272.703 253.120159,278.728 C259.360159,281.762 266.020159,283.91 272.842159,285.088 C279.664159,286.262 286.656159,286.428 293.517159,285.674 C307.244159,284.17 320.445159,278.746 331.199159,270.219 C341.976159,261.736 350.393159,250.305 355.150159,237.475 C357.554159,231.072 359.063159,224.338 359.679159,217.507 C360.306159,210.68 360.053159,203.73 358.812159,196.951 C357.618159,190.161 355.466159,183.511 352.399159,177.275 C350.865159,174.159 349.109159,171.144 347.149159,168.26 C346.167159,166.819 345.136159,165.41 344.057159,164.037 C343.516159,163.352 342.963159,162.674 342.401159,162.006 C341.828159,161.329 341.290159,160.711 340.757159,159.929 L344.935159,156 Z" id="Fill-7"></path>
            <path d="M168.809205,299.896421 C167.343205,298.829421 166.159205,297.872421 164.889205,296.855421 C163.655205,295.835421 162.426205,294.834421 161.233205,293.791421 C158.841205,291.717421 156.529205,289.571421 154.302205,287.330421 C149.869205,282.837421 145.762205,277.943421 142.467205,272.370421 C139.192205,266.816421 136.801205,260.472421 136.173205,253.692421 C135.856205,250.313421 135.979205,246.860421 136.502205,243.463421 C137.019205,240.060421 137.963205,236.745421 139.045205,233.463421 L139.128205,233.211421 C140.187205,229.997421 143.651205,228.250421 146.865205,229.309421 C150.079205,230.368421 151.827205,233.832421 150.767205,237.046421 C150.525205,237.781421 150.141205,238.456421 149.680205,239.021421 C146.347205,243.073421 144.494205,248.111421 144.424205,253.299421 C144.388205,255.894421 144.819205,258.516421 145.612205,261.064421 C146.426205,263.608421 147.610205,266.069421 149.051205,268.406421 C151.944205,273.084421 155.862205,277.230421 160.259205,280.781421 C162.454205,282.564421 164.789205,284.195421 167.211205,285.666421 C168.428205,286.392421 169.650205,287.106421 170.911205,287.733421 C172.138205,288.360421 173.485205,288.998421 174.623205,289.398421 C177.792205,290.513421 179.457205,293.985421 178.343205,297.154421 C177.228205,300.323421 173.756205,301.988421 170.587205,300.874421 C170.025205,300.676421 169.510205,300.404421 169.049205,300.072421 L168.809205,299.896421 Z" id="Fill-9"></path>
            <path d="M321.871906,213.135808 C321.826906,210.832808 321.753906,208.526808 321.415906,206.233808 C321.069906,203.944808 320.468906,201.691808 319.660906,199.505808 C318.042906,195.134808 315.531906,191.050808 312.307906,187.577808 C309.094906,184.093808 305.174906,181.208808 300.809906,179.187808 C296.449906,177.142808 291.632906,176.049808 286.749906,175.881808 C276.957906,175.444808 267.036906,179.373808 259.965906,186.351808 C256.447906,189.847808 253.701906,194.131808 252.075906,198.774808 C250.446906,203.443808 249.841906,208.278808 250.089906,213.185808 C250.348906,217.888808 251.325906,222.677808 253.188906,227.032808 C255.047906,231.405808 257.780906,235.397808 261.165906,238.716808 C264.525906,242.059808 268.527906,244.757808 272.901906,246.567808 C277.298906,248.383808 281.939906,249.325808 286.804906,249.333808 C289.067906,249.335808 291.519906,249.110808 293.818906,248.653808 C296.142906,248.190808 298.411906,247.479808 300.591906,246.561808 C304.951906,244.723808 308.940906,242.012808 312.262906,238.648808 C315.578906,235.271808 318.084906,231.153808 319.674906,226.771808 C320.475906,224.579808 321.037906,222.317808 321.399906,220.034808 C321.591906,218.894808 321.726906,217.746808 321.804906,216.594808 C321.842906,216.022808 321.866906,215.436808 321.879906,214.872808 L321.884906,214.064808 L321.871906,213.065808 L321.871906,213.135808 Z M332.996906,213.205808 L332.958906,214.204808 L332.890906,215.391808 C332.833906,216.157808 332.764906,216.900808 332.674906,217.653808 C332.493906,219.152808 332.240906,220.641808 331.914906,222.114808 C331.243906,225.056808 330.255906,227.916808 329.015906,230.644808 C326.528906,236.106808 322.989906,241.005808 318.772906,245.159808 C314.561906,249.329808 309.532906,252.663808 304.049906,254.901808 C301.309906,256.022808 298.456906,256.862808 295.555906,257.432808 C292.629906,258.010808 289.755906,258.301808 286.690906,258.305808 C280.903906,258.317808 274.891906,257.167808 269.449906,254.893808 C263.979906,252.628808 258.964906,249.280808 254.792906,245.089808 C246.507906,236.680808 241.517906,224.940808 242.036906,213.083808 C242.281906,207.337808 243.769906,201.519808 246.229906,196.349808 C248.678906,191.149808 251.977906,186.414808 255.994906,182.380808 C259.969906,178.298808 264.779906,175.048808 270.019906,172.746808 C275.270906,170.472808 280.981906,169.189808 286.749906,169.018808 C292.517906,168.847808 298.354906,169.845808 303.834906,171.890808 C309.311906,173.945808 314.409906,177.105808 318.728906,181.155808 C327.363906,189.233808 332.803906,201.003808 332.996906,213.135808 L332.996906,213.205808 Z" id="Fill-11"></path>
            <polygon id="Fill-13" points="317.014 188 286 212.37 328.222 220.743 324.989 193.317"></polygon>
            <path d="M285.273,197.638 C285.273,202.407 281.406,206.274 276.635,206.274 C271.866,206.274 268,202.407 268,197.638 C268,192.868 271.866,189 276.635,189 C281.406,189 285.273,192.868 285.273,197.638" id="Fill-15"></path>
        </g>
    </g>
</svg>
