<?xml version="1.0" encoding="UTF-8" standalone="no"?>
<svg width="550px" height="440px" viewBox="0 0 550 440" version="1.1" xmlns="http://www.w3.org/2000/svg" xmlns:xlink="http://www.w3.org/1999/xlink">
    <!-- Generator: Sketch 40.1 (33804) - http://www.bohemiancoding.com/sketch -->
    <title>eye-green-hover</title>
    <desc>Created with Sketch.</desc>
    <defs></defs>
    <g id="Page-1" stroke="none" stroke-width="1" fill="none" fill-rule="evenodd">
        <g id="eye-green-hover">
            <path d="M444,227.968 C444,227.968 372.365,321.936 284,321.936 C195.634,321.936 124,227.968 124,227.968 C124,227.968 195.634,134 284,134 C372.365,134 444,227.968 444,227.968 L444,227.968 Z" id="Stroke-1" stroke="#FFFFFF" stroke-width="12"></path>
            <path d="M346.445,228.222 C346.445,262.586 318.587,290.444 284.223,290.444 C249.858,290.444 222,262.586 222,228.222 C222,193.858 249.858,166 284.223,166 C318.587,166 346.445,193.858 346.445,228.222 L346.445,228.222 Z" id="Stroke-3" stroke="#FFFFFF" stroke-width="12"></path>
            <polygon id="Fill-5" fill="#FFFFFF" points="284 228.226 319.322 177 335.226 192.904"></polygon>
            <path d="M444,228 L466,228" id="Stroke-7" stroke="#FFFFFF" stroke-width="12" stroke-linecap="round" stroke-linejoin="round"></path>
            <path d="M102,228 L124,228" id="Stroke-9" stroke="#FFFFFF" stroke-width="12" stroke-linecap="round" stroke-linejoin="round"></path>
        </g>
    </g>
</svg>
