<?xml version="1.0" encoding="UTF-8" standalone="no"?>
<svg width="550px" height="440px" viewBox="0 0 550 440" version="1.1" xmlns="http://www.w3.org/2000/svg" xmlns:xlink="http://www.w3.org/1999/xlink">
    <!-- Generator: Sketch 40.1 (33804) - http://www.bohemiancoding.com/sketch -->
    <title>eye-yellow-hover</title>
    <desc>Created with Sketch.</desc>
    <defs></defs>
    <g id="Page-1" stroke="none" stroke-width="1" fill="none" fill-rule="evenodd">
        <g id="eye-yellow-hover">
            <g id="Page-1" transform="translate(101.000000, 68.000000)">
                <path d="M344.0707,157.9997 C344.0707,157.9997 272.4357,251.9677 184.0707,251.9677 C95.7047,251.9677 24.0707,157.9997 24.0707,157.9997 C24.0707,157.9997 95.7047,64.0317 184.0707,64.0317 C272.4357,64.0317 344.0707,157.9997 344.0707,157.9997 L344.0707,157.9997 Z" id="Stroke-1" stroke="#FFFFFF" stroke-width="12"></path>
                <path d="M246.2929,157.9997 C246.2929,192.3637 218.4349,220.2217 184.0709,220.2217 C149.7069,220.2217 121.8479,192.3637 121.8479,157.9997 C121.8479,123.6357 149.7069,95.7777 184.0709,95.7777 C218.4349,95.7777 246.2929,123.6357 246.2929,157.9997 L246.2929,157.9997 Z" id="Stroke-3" stroke="#FFFFFF" stroke-width="12"></path>
                <polygon id="Fill-5" fill="#FFFFFF" points="184.0702 157.9997 219.3932 106.7737 235.2992 122.6757"></polygon>
                <path d="M132.913,74.028 L106.404,17.667" id="Stroke-10" stroke="#FFFFFF" stroke-width="12"></path>
                <path d="M84.0492,100.2492 L44.7072,58.3102" id="Stroke-12" stroke="#FFFFFF" stroke-width="12"></path>
                <path d="M39.6596,140.0832 L0.0706,116.5002" id="Stroke-14" stroke="#FFFFFF" stroke-width="12"></path>
                <path d="M235,74.361 L261.509,18" id="Stroke-16" stroke="#FFFFFF" stroke-width="12"></path>
                <path d="M185,61.361 L185,0.867609278" id="Stroke-16-Copy" stroke="#FFFFFF" stroke-width="12"></path>
                <path d="M284.0922,100.2492 L323.4342,58.3102" id="Stroke-18" stroke="#FFFFFF" stroke-width="12"></path>
                <path d="M328.4818,140.0832 L368.0708,116.5002" id="Stroke-20" stroke="#FFFFFF" stroke-width="12"></path>
            </g>
        </g>
    </g>
</svg>
