<?xml version="1.0" encoding="UTF-8" standalone="no"?>
<svg width="550px" height="440px" viewBox="0 0 550 440" version="1.1" xmlns="http://www.w3.org/2000/svg" xmlns:xlink="http://www.w3.org/1999/xlink">
    <!-- Generator: Sketch 40.1 (33804) - http://www.bohemiancoding.com/sketch -->
    <title>eye-yellow</title>
    <desc>Created with Sketch.</desc>
    <defs>
        <polygon id="path-1" points="347.981815 172 0 172 0 0.963078261 347.981815 0.963078261 347.981815 172"></polygon>
    </defs>
    <g id="Page-1" stroke="none" stroke-width="1" fill="none" fill-rule="evenodd">
        <g id="eye-yellow">
            <g id="Page-1" transform="translate(91.000000, 108.000000)">
                <g id="Group-3" transform="translate(0.000000, 51.484000)">
                    <mask id="mask-2" fill="white">
                        <use xlink:href="#path-1"></use>
                    </mask>
                    <g id="Clip-2"></g>
                    <path d="M340.1935,83.6076 C339.9185,83.4546 339.6595,83.2856 339.4165,83.1076 C338.9425,82.7546 338.5415,82.3366 338.1525,81.9036 L336.9595,80.6276 C335.3595,78.9316 333.7235,77.2566 332.0645,75.6036 C328.7445,72.2976 325.3255,69.0786 321.8275,65.9466 C314.8815,59.6226 307.5665,53.7086 300.0525,48.0736 C284.9965,36.8536 268.7275,27.1956 251.3915,20.0566 C234.1005,12.8706 215.5665,8.5386 196.8955,8.0526 C187.5885,7.7156 178.4145,8.8646 169.3565,11.0466 C160.3345,13.2936 151.5135,16.5026 143.0175,20.4516 C126.0125,28.3706 110.1365,38.7396 95.1665,50.2216 C80.2015,61.7426 66.0895,74.3926 52.5435,87.6146 C45.7955,94.2536 39.2335,101.0766 32.5685,107.8076 C25.9435,114.5576 19.2435,121.3436 13.3215,128.6156 C12.5865,129.5216 11.8605,130.4306 11.1735,131.3346 C10.8385,131.7916 10.5105,132.2476 10.2145,132.6806 L9.8185,133.2826 L9.7035,133.4756 C9.7065,133.4676 9.6825,133.5236 9.7415,133.3916 C9.7925,133.2726 9.8075,133.2186 9.7785,133.2976 C9.8495,133.0976 9.7615,133.3456 9.7605,133.3476 C9.4125,134.2936 9.0285,134.9696 8.7065,135.5506 C8.3835,136.1216 8.1065,136.5936 7.9645,136.8926 C7.8935,137.0366 7.8605,137.1306 7.8765,137.0976 C7.8855,137.0676 7.9555,136.8736 7.9175,136.4626 C7.8905,136.0556 7.6545,135.5146 7.4315,135.2516 C7.2125,134.9756 7.0735,134.9036 7.0595,134.8846 C7.0255,134.8656 7.3335,134.9996 7.7045,135.0836 C8.0815,135.1766 8.5475,135.2586 9.0365,135.3266 C10.0225,135.4616 11.1145,135.5416 12.2245,135.5886 C14.4545,135.6596 16.7745,135.5936 19.1005,135.4976 C21.4305,135.4116 23.7765,135.2116 26.1265,135.0056 C28.4775,134.8096 30.8325,134.5456 33.1875,134.2546 C37.8975,133.6836 42.6105,132.9836 47.3055,132.0856 L47.3065,132.0856 L47.5965,132.0686 C48.8325,131.9936 49.9985,132.3306 50.9615,132.9586 C56.3495,136.4676 62.2215,139.4846 68.2845,142.1516 C74.3535,144.8176 80.6135,147.1846 86.9965,149.2366 C99.7655,153.3456 112.9245,156.4876 126.2315,158.8566 C139.5495,161.1736 153.0215,162.7386 166.5385,163.5606 C173.2865,163.9566 180.1005,164.2226 186.7855,164.1726 C193.4335,164.0796 200.0855,163.4596 206.6795,162.3956 C219.8735,160.2706 232.8115,156.3506 245.2255,151.1396 C257.6535,145.9436 269.6015,139.5306 281.0235,132.2746 C292.4495,125.0166 303.3755,116.9386 313.7915,108.2466 C318.9975,103.8996 324.0795,99.3976 329.0135,94.7446 C331.4805,92.4186 333.9125,90.0546 336.2965,87.6516 C337.6105,86.3246 338.9175,84.9706 340.1935,83.6076 L340.1935,83.6076 Z M347.7685,84.6136 C338.3395,94.8346 328.4225,104.2526 317.9025,113.1436 C307.3425,122.0606 296.2475,130.3666 284.5955,137.8646 C272.9385,145.3456 260.7325,152.0516 247.9295,157.5326 C235.1315,162.9916 221.7485,167.2956 207.9205,169.7366 C201.0125,170.9556 194.0025,171.7136 186.9605,171.9186 C179.9515,172.0796 173.0665,171.9946 166.1365,171.7356 C152.2975,171.2056 138.4855,169.9166 124.7685,167.8466 C111.0475,165.8036 97.4015,163.0246 83.9655,159.1496 C70.5435,155.2456 57.2475,150.4536 44.6605,143.1706 L48.3155,144.0436 L48.3145,144.0436 C38.6325,143.8646 29.0245,144.1846 19.2285,144.0496 C16.7725,144.0206 14.3045,143.9396 11.7585,143.7446 C10.4815,143.6546 9.1865,143.5336 7.8075,143.3076 C7.1145,143.1916 6.4035,143.0536 5.6255,142.8376 C4.8445,142.6096 4.0065,142.3556 2.9425,141.7236 C2.4175,141.3996 1.7985,140.9526 1.2045,140.2086 C0.6065,139.4806 0.1265,138.3696 0.0335,137.3666 C-0.0725,136.3606 0.0895,135.5626 0.2595,134.9596 C0.4395,134.3506 0.6365,133.8906 0.8225,133.4946 C1.1965,132.7136 1.5335,132.1586 1.7925,131.6846 C2.0515,131.2206 2.2355,130.8396 2.2945,130.6596 L2.3525,130.4986 L2.4755,130.1976 C2.5955,129.9296 2.6405,129.8516 2.7135,129.7126 C2.8395,129.4786 2.9445,129.3016 3.0485,129.1296 C3.2535,128.7966 3.4415,128.5076 3.6305,128.2276 C4.0045,127.6706 4.3725,127.1536 4.7415,126.6436 C5.4645,125.6166 6.1885,124.6226 6.9205,123.6396 C12.8015,115.8476 18.7275,108.2336 25.0235,100.8756 C31.3065,93.5186 38.0925,86.6196 45.0605,79.9186 C48.5425,76.5646 52.0695,73.2566 55.6505,70.0056 C59.2465,66.7716 62.8915,63.5906 66.5895,60.4676 C73.9675,54.2026 81.6275,48.2616 89.4865,42.5836 C105.2215,31.2766 121.8915,21.0616 139.8475,13.3396 C148.8225,9.5036 158.0915,6.2226 167.6905,4.0366 C172.4805,2.9166 177.3465,2.0596 182.2655,1.5406 C184.7245,1.2806 187.1965,1.1026 189.6745,1.0206 C190.9225,0.9786 192.1325,0.9596 193.4175,0.9636 C194.6035,0.9646 195.8095,0.9736 197.0645,1.0026 C216.6915,1.4436 236.0415,5.7626 254.3285,12.5786 C272.6275,19.4506 289.8255,28.9746 305.7855,40.1346 C313.7835,45.7036 321.3855,51.8136 328.7165,58.2286 C332.3555,61.4686 335.9145,64.7996 339.3825,68.2346 C341.1175,69.9536 342.8295,71.6966 344.5165,73.4746 L345.7785,74.8156 C346.2055,75.2576 346.6125,75.7196 346.9445,76.2526 C347.6075,77.3286 348.0565,78.5516 347.9715,80.3366 L347.7685,84.6136 Z" id="Fill-1" fill="#FFFFFF" mask="url(#mask-2)"></path>
                </g>
                <path d="M39.7789,64.43 C49.7389,55.53 60.4729,47.507 71.6909,40.358 C82.9189,33.207 94.6689,26.911 106.8209,21.524 C131.1149,10.759 157.0839,3.628 183.5799,1.067 C190.2009,0.428 196.8499,0.072 203.5009,0.011 C210.1209,-0.055 216.8719,0.18 223.5539,0.867 C236.9219,2.22 250.4329,5.482 262.7469,11.632 C268.8969,14.68 274.6959,18.403 280.0449,22.572 C285.4029,26.739 290.3189,31.323 294.9679,36.017 C304.2579,45.425 312.6199,55.179 321.9259,63.688 C323.8729,65.468 324.0079,68.49 322.2279,70.436 C320.4659,72.363 317.4879,72.515 315.5389,70.792 L315.5259,70.78 C305.5509,61.948 296.8479,52.127 287.7769,43.263 C283.2369,38.83 278.5789,34.647 273.6439,30.942 C268.7119,27.232 263.4959,24.016 257.9919,21.401 C246.9899,16.14 234.8609,13.384 222.4719,12.337 C216.2549,11.807 210.0359,11.69 203.7059,11.857 C197.4049,12.02 191.1119,12.461 184.8499,13.171 C159.7899,16.013 135.2639,23.183 112.3739,33.785 C89.4989,44.413 68.1199,58.373 49.6719,75.37 C46.6759,78.13 42.0099,77.939 39.2499,74.944 C36.4899,71.949 36.6809,67.283 39.6769,64.523 C39.6939,64.506 39.7129,64.49 39.7309,64.473 L39.7789,64.43 Z" id="Fill-4" fill="#FFFFFF"></path>
                <path d="M278.839,77.8665 C279.106,78.1945 279.204,78.5755 279.331,78.9785 L279.681,80.1425 C279.908,80.9185 280.124,81.6955 280.33,82.4745 C280.743,84.0325 281.111,85.5985 281.458,87.1725 C282.149,90.3195 282.737,93.5005 283.055,96.7555 C283.139,97.5695 283.213,98.3875 283.274,99.2115 C283.345,100.0205 283.371,100.9045 283.362,101.6535 C283.359,103.3465 283.309,104.9445 283.214,106.5925 C283.031,109.8655 282.639,113.1295 282.048,116.3585 C279.716,129.2835 274.249,141.6415 266.292,152.0725 C258.368,162.5365 247.943,171.0305 236.23,176.8175 C224.508,182.6135 211.446,185.5665 198.461,185.5195 C185.474,185.5585 172.485,182.5665 160.866,176.8255 C149.205,171.1685 138.874,162.8595 130.757,152.7285 C122.652,142.5965 116.836,130.5315 114.224,117.7395 C112.878,111.3615 112.396,104.7955 112.609,98.3185 C112.72,95.0425 113.065,91.8175 113.573,88.6015 C113.829,86.9965 114.131,85.3985 114.478,83.8125 C114.65,83.0185 114.838,82.2285 115.032,81.4405 L115.183,80.8505 C115.245,80.6565 115.242,80.4475 115.416,80.2815 C115.762,79.9495 116.563,79.7295 118.393,79.8025 L119.917,80.2005 C121.557,81.0255 122.167,81.5585 122.323,81.9795 C122.401,82.1895 122.314,82.3585 122.285,82.5425 L122.168,83.0865 C122.018,83.8115 121.873,84.5385 121.743,85.2685 C121.481,86.7265 121.26,88.1915 121.081,89.6615 C120.713,92.5945 120.556,95.5705 120.501,98.5025 C120.381,104.4435 120.98,110.3325 122.119,116.1255 C124.467,127.6835 129.36,138.7615 136.557,148.2035 C143.706,157.6775 153.186,165.4075 163.898,170.5635 C174.635,175.6785 186.538,178.2125 198.396,177.9985 C210.255,177.7715 221.985,174.7505 232.419,169.2905 C242.884,163.8725 251.98,155.9725 258.975,146.5705 C262.467,141.8625 265.424,136.7645 267.789,131.4105 C270.15,126.0515 271.871,120.4215 272.984,114.6735 C273.531,111.7965 273.922,108.8885 274.167,105.9655 C274.286,104.5155 274.365,103.0085 274.403,101.5965 C274.404,100.7935 274.442,100.1245 274.479,99.3815 C274.508,98.6535 274.526,97.9195 274.532,97.1815 C274.535,94.2345 274.482,91.2305 274.268,88.2325 C274.163,86.7335 274.007,85.2385 273.826,83.7475 L273.521,81.5205 L273.346,80.4155 C273.293,80.0635 273.202,79.6915 273.278,79.2665 L278.839,77.8665 Z" id="Fill-6" fill="#FFFFFF"></path>
                <path d="M67.1832,203.2957 C66.4732,202.6977 65.9432,202.2147 65.3652,201.6767 L63.7032,200.1107 C62.6252,199.0517 61.5542,198.0137 60.5252,196.9337 C58.4582,194.7877 56.4862,192.5777 54.6042,190.2887 C50.8612,185.7007 47.5002,180.7667 44.8632,175.3687 C42.2382,169.9767 40.3902,164.1027 39.6392,157.9627 C39.2632,154.8957 39.1572,151.7697 39.3152,148.6347 C39.4682,145.4947 39.9172,142.3657 40.4522,139.2097 L40.5022,138.9147 C41.0692,135.5667 44.2442,133.3117 47.5932,133.8787 C50.9422,134.4457 53.1982,137.6207 52.6302,140.9697 C52.4902,141.7977 52.1732,142.5827 51.7512,143.2507 C50.4152,145.3447 49.4622,147.6397 48.8182,150.0187 C48.1702,152.3997 47.8502,154.8757 47.8772,157.3687 C47.9132,162.3657 49.3622,167.3677 51.7352,171.9287 C54.0972,176.5067 57.3562,180.6777 61.1342,184.3097 C63.0182,186.1317 65.0442,187.8167 67.1712,189.3437 C68.2392,190.1007 69.3142,190.8407 70.4332,191.4987 C70.9902,191.8287 71.5412,192.1607 72.1052,192.4557 C72.6532,192.7377 73.2592,193.0637 73.7142,193.2297 C76.9012,194.3897 78.5432,197.9137 77.3822,201.1007 C76.2222,204.2867 72.6982,205.9287 69.5112,204.7687 C68.8232,204.5177 68.2072,204.1567 67.6762,203.7127 L67.1832,203.2957 Z" id="Fill-8" fill="#FFFFFF"></path>
                <path d="M233.0782,114.6273 C233.0202,112.3943 232.9742,110.1573 232.6432,107.9343 C232.3112,105.7143 231.7292,103.5273 230.9492,101.4063 C229.3852,97.1653 226.9532,93.2013 223.8272,89.8263 C220.7152,86.4413 216.9132,83.6363 212.6772,81.6693 C208.4462,79.6903 203.7772,78.5823 199.0272,78.4183 C194.2792,78.2633 189.4822,79.0583 185.0232,80.8133 C180.5492,82.5323 176.4592,85.2473 173.0022,88.6003 C169.5652,91.9823 166.9282,96.1713 165.3452,100.6753 C163.7692,105.2153 163.1922,109.9103 163.4402,114.6763 C163.6982,119.2383 164.6462,123.8903 166.4732,128.1073 C168.3022,132.3353 170.9282,136.2163 174.2042,139.4493 C177.4612,142.6953 181.3472,145.3103 185.5912,147.0683 C189.8572,148.8303 194.3592,149.7463 199.0842,149.7533 C201.2752,149.7553 203.6582,149.5373 205.8892,149.0933 C208.1432,148.6443 210.3452,147.9533 212.4602,147.0623 C216.6902,145.2793 220.5612,142.6483 223.7822,139.3823 C227.0002,136.1033 229.4272,132.1033 230.9632,127.8513 C231.7342,125.7243 232.2812,123.5313 232.6242,121.3163 C232.8052,120.2083 232.9212,119.0953 232.9982,117.9783 C233.0382,117.4233 233.0632,116.8563 233.0782,116.3113 L233.0872,115.5293 L233.0782,114.5573 L233.0782,114.6273 Z M244.2032,114.6973 L244.1692,115.6693 L244.1062,116.8303 C244.0542,117.5803 243.9882,118.3043 243.9032,119.0403 C243.7292,120.5053 243.4682,121.9583 243.1442,123.3963 C242.4812,126.2693 241.5182,129.0623 240.3032,131.7243 C237.8702,137.0563 234.4112,141.8373 230.2932,145.8923 C226.1822,149.9623 221.2712,153.2163 215.9182,155.4023 C213.2422,156.4983 210.4572,157.3163 207.6242,157.8733 C204.7682,158.4373 201.9642,158.7203 198.9702,158.7263 C193.3222,158.7363 187.4512,157.6153 182.1382,155.3943 C176.7982,153.1833 171.9032,149.9143 167.8282,145.8243 C159.6872,137.6463 154.8872,126.1363 155.3872,114.5743 C155.6322,108.9693 157.0922,103.2913 159.4982,98.2513 C161.8832,93.1713 165.1322,88.5793 169.0312,84.6293 C172.9072,80.6473 177.5982,77.4773 182.7072,75.2283 C187.8282,73.0023 193.4042,71.7593 199.0272,71.6073 C204.6502,71.4403 210.3542,72.3703 215.7032,74.3723 C221.0512,76.3733 226.0302,79.4533 230.2502,83.4043 C238.6862,91.2853 244.0092,102.7753 244.2032,114.6273 L244.2032,114.6973 Z" id="Fill-10" fill="#FFFFFF"></path>
                <polygon id="Fill-12" fill="#FFFFFF" points="218.1222 82.2112 197.6652 114.7142 231.3922 94.5672 227.1752 84.4752"></polygon>
                <path d="M189.2062,101.5013 C190.2862,104.5243 188.7122,107.8503 185.6872,108.9303 C182.6652,110.0103 179.3392,108.4353 178.2592,105.4123 C177.1792,102.3883 178.7542,99.0623 181.7772,97.9823 C184.8012,96.9023 188.1272,98.4783 189.2062,101.5013" id="Fill-14" fill="#FFFFFF"></path>
                <path d="M365.5685,125.6883 C366.2415,125.8783 367.1475,126.0533 367.9695,126.1893 C368.8145,126.3263 369.6725,126.4353 370.5355,126.5183 C372.2615,126.6823 374.0105,126.7413 375.7615,126.6893 C379.2625,126.5843 382.7805,126.0403 386.1755,124.9653 C386.7095,124.7943 387.2795,125.0873 387.4505,125.6213 C387.6045,126.1003 387.3775,126.6143 386.9415,126.8343 C383.5785,128.5263 379.9345,129.7153 376.1865,130.4343 C374.3105,130.7943 372.4075,131.0373 370.4845,131.1633 C369.5225,131.2243 368.5565,131.2573 367.5825,131.2563 C366.5855,131.2493 365.6735,131.2333 364.5485,131.1123 L364.5155,131.1093 C362.9945,130.9463 361.8925,129.5803 362.0565,128.0583 C362.2195,126.5373 363.5855,125.4353 365.1075,125.5983 C365.2605,125.6153 365.4245,125.6483 365.5685,125.6883" id="Fill-16" fill="#FFFFFF"></path>
                <path d="M48.5294,205.0477 C50.6824,206.7217 52.9874,208.3507 55.2984,209.8937 C57.6194,211.4387 59.9904,212.9117 62.4104,214.2907 C67.2524,217.0277 72.3044,219.4727 77.6254,220.9197 L77.6364,220.9227 C78.1754,221.0687 78.4924,221.6247 78.3464,222.1627 C78.2044,222.6827 77.6784,222.9957 77.1574,222.8847 C71.4874,221.6547 66.1584,219.4027 61.0394,216.8567 C58.4814,215.5717 55.9744,214.1897 53.5144,212.7317 C51.0484,211.2657 48.6514,209.7587 46.2544,208.0887 C45.3924,207.4887 45.1804,206.3047 45.7804,205.4427 C46.3804,204.5827 47.5644,204.3697 48.4254,204.9707 C48.4514,204.9877 48.4764,205.0067 48.5014,205.0247 L48.5294,205.0477 Z" id="Fill-18" fill="#FFFFFF"></path>
                <path d="M286.6456,208.3807 C290.1336,207.0097 293.7356,205.2437 297.1836,203.4147 C300.6526,201.5667 304.0556,199.5727 307.3856,197.4587 C314.0466,193.2307 320.4196,188.5207 326.4536,183.3987 C338.5186,173.1517 349.2056,161.2197 358.0406,147.9887 C358.3496,147.5257 358.9766,147.4007 359.4406,147.7107 C359.8936,148.0137 360.0226,148.6197 359.7396,149.0807 C351.2936,162.7837 340.8836,175.3147 328.9466,186.2257 C322.9766,191.6807 316.6316,196.7387 309.9466,201.3337 C306.6036,203.6307 303.1756,205.8117 299.6566,207.8557 C296.1086,209.8987 292.5866,211.8067 288.6886,213.5097 C287.2916,214.1187 285.6636,213.4817 285.0536,212.0837 C284.4436,210.6867 285.0816,209.0597 286.4786,208.4487 C286.5066,208.4367 286.5346,208.4257 286.5626,208.4137 L286.6456,208.3807 Z" id="Fill-20" fill="#FFFFFF"></path>
                <path d="M369.8341,134.7088 C370.3231,134.9478 371.0821,135.2168 371.7531,135.4258 C372.4481,135.6428 373.1631,135.8308 373.8881,135.9958 C375.3391,136.3248 376.8281,136.5578 378.3341,136.7058 C381.3471,137.0018 384.4241,136.9588 387.4891,136.6368 C388.0451,136.5758 388.5431,136.9778 388.6041,137.5328 C388.6591,138.0488 388.3141,138.5158 387.8211,138.6288 C384.6951,139.3358 381.4801,139.7688 378.2191,139.8348 C376.5871,139.8668 374.9451,139.8088 373.2971,139.6358 C372.4731,139.5478 371.6461,139.4338 370.8171,139.2788 C369.9641,139.1128 369.2071,138.9618 368.2301,138.6388 C367.1161,138.2678 366.5131,137.0638 366.8831,135.9498 C367.2531,134.8358 368.4571,134.2318 369.5711,134.6028 C369.6571,134.6308 369.7541,134.6708 369.8341,134.7088" id="Fill-22" fill="#FFFFFF"></path>
            </g>
        </g>
    </g>
</svg>
