<svg width="550" height="440" viewBox="0 0 550 440" xmlns="http://www.w3.org/2000/svg"><title>eye-blue-hover</title><g fill="#FFF" fill-rule="evenodd"><path d="M456.763 344.937c-.031-.102-.052-.206-.086-.304a5.54 5.54 0 0 0-.89-1.505l-1.065-1.377a238.584 238.584 0 0 0-4.381-5.434 274.349 274.349 0 0 0-9.21-10.527c-6.32-6.863-12.965-13.433-19.945-19.618-6.99-6.171-14.298-11.978-21.926-17.308-7.62-5.34-15.587-10.171-23.866-14.348-16.526-8.377-34.378-14.184-52.69-15.99-4.59-.463-9.132-.664-13.746-.615-4.55.055-9.1.442-13.615 1.109-9.036 1.337-17.917 3.818-26.516 7.084-8.602 3.272-16.93 7.328-24.97 11.915-8.04 4.589-15.821 9.673-23.333 15.15-15.028 10.962-29.041 23.369-42.206 36.605-6.581 6.623-12.92 13.486-19.224 20.378-6.293 6.895-12.441 13.969-18.052 21.376a111.235 111.235 0 0 0-4 5.613c-.31.467-.613.934-.89 1.38l-.374.63c-.11.18-.192.393-.058.08-.048.178.008.153 0-.03-.003-.181-.106-.377-.081-.351.035.05.655.522 1.44.859.795.362 1.75.696 2.752.987 2.02.562 4.22.989 6.446 1.352 4.47.703 9.09 1.138 13.729 1.426 4.64.292 9.317.449 14.009.437h.006l.274.03a5.504 5.504 0 0 1 2.268.788c5.509 3.442 11.194 6.659 16.994 9.672a273.973 273.973 0 0 0 17.78 8.317c12.056 5.129 24.482 9.436 37.158 12.815 12.689 3.324 25.63 5.699 38.68 6.97 6.532.645 13.069.957 19.623.995 6.49.024 12.989-.415 19.442-1.275 12.912-1.702 25.609-5.162 37.809-9.931 12.213-4.757 23.949-10.794 35.138-17.733 11.17-6.974 21.788-14.861 31.835-23.417 5.022-4.28 9.9-8.732 14.613-13.35a258.75 258.75 0 0 0 6.933-7.046l1.685-1.803c.552-.608 1.142-1.184 1.585-1.888.406-.627.708-1.336.925-2.118zm9.364 4.302c-1.343.107-2.321.364-3.223.725a9.238 9.238 0 0 0-2.31 1.369c-.672.535-1.205 1.193-1.783 1.81L457.085 355a267.166 267.166 0 0 1-7.075 7.244 292.443 292.443 0 0 1-14.887 13.692c-10.233 8.782-21.074 16.876-32.503 24.095-11.408 7.24-23.434 13.592-36.04 18.656-12.6 5.052-25.78 8.83-39.295 10.885a151.003 151.003 0 0 1-20.443 1.693c-6.788.094-13.594-.161-20.356-.645-13.54-.992-26.983-3.132-40.187-6.247-26.457-6.131-51.945-16.042-75.862-29.327l2.542.819-.006-.001c-9.421-1.68-18.835-2.998-28.4-5.171-2.4-.555-4.806-1.172-7.284-2.035-1.244-.43-2.507-.91-3.833-1.586-1.31-.711-2.77-1.492-4.202-3.31-.698-.902-1.31-2.208-1.454-3.564-.16-1.357.099-2.574.432-3.51.32-.874.545-1.17.725-1.501l.548-.88a56.36 56.36 0 0 1 1.058-1.572c1.409-2.021 2.845-3.936 4.272-5.865a477.033 477.033 0 0 1 17.807-22.398c6.162-7.268 12.74-14.172 19.51-20.877 13.549-13.398 27.977-25.97 43.535-37.124 15.544-11.128 32.307-20.861 50.484-27.51 9.077-3.306 18.507-5.81 28.162-7.104 4.826-.646 9.702-.994 14.585-.986 4.82.02 9.712.275 14.503.808 19.274 2.089 37.854 8.364 54.863 17.19 17.022 8.87 32.703 20.04 46.976 32.694a290.071 290.071 0 0 1 20.49 19.952 281.462 281.462 0 0 1 9.483 10.717 240.919 240.919 0 0 1 4.53 5.557l1.108 1.414c.359.48.76.926 1.259 1.304 1.029.76 2.215 1.283 4.288 1.474a3.633 3.633 0 0 1-.045 7.238l-.246.019z"/><path d="M141.394 285.124c9.512-11.401 20.053-22.047 31.625-31.466 11.568-9.417 24.197-17.611 37.708-24.038 13.497-6.44 27.865-11.08 42.572-13.644a166.2 166.2 0 0 1 22.218-2.363c3.715-.15 7.445-.173 11.146-.08 3.746.096 7.44.323 11.14.662 14.785 1.365 29.279 4.488 43.36 8.712 14.086 4.237 27.782 9.584 41.065 15.749a349.446 349.446 0 0 1 38.545 20.947c6.188 3.895 12.254 7.989 18.144 12.33 5.887 4.347 11.615 8.925 17.015 13.909a1.585 1.585 0 0 1-2.117 2.357l-.006-.005c-5.401-4.738-11.152-9.105-17.061-13.238-5.913-4.132-12-8.021-18.204-11.71a344.495 344.495 0 0 0-38.52-19.686c-13.223-5.736-26.8-10.64-40.647-14.424-13.841-3.775-27.977-6.435-42.172-7.381-14.14-.945-28.462-.027-42.301 2.759-13.86 2.783-27.285 7.5-39.86 13.894-12.583 6.382-24.31 14.416-35.044 23.616-10.742 9.207-20.49 19.554-29.311 30.69a6 6 0 0 1-9.407-7.452c.025-.033.05-.065.077-.097l.035-.041z"/><path d="M368.563 262.275c-1.402 2.6-.871 3.541-.151 4.2a98.7 98.7 0 0 1 1.91 2.277 107.77 107.77 0 0 1 3.594 4.731c2.28 3.237 4.423 6.577 6.284 10.08 3.75 6.983 6.66 14.453 8.502 22.228 1.836 7.776 2.611 15.825 2.214 23.868-.413 8.04-2.077 16.038-4.865 23.621-5.643 15.145-15.6 28.651-28.443 38.427-12.822 9.79-28.437 15.886-44.454 17.23-15.986 1.424-32.337-1.686-46.572-8.96-14.24-7.229-26.379-18.499-34.407-32.183-8.096-13.658-12.037-29.518-11.712-45.179a84.72 84.72 0 0 1 .974-11.679 84.943 84.943 0 0 1 2.466-11.463c1.107-3.752 2.4-7.453 3.96-11.047a83.604 83.604 0 0 1 3.931-7.89c.16-1.074 2.33-.825-1.732-4.576l10.143 6.413c-5.077-2.133-3.9-.252-4.71.324a79.478 79.478 0 0 0-3.952 7.389c-1.585 3.375-2.947 6.864-3.978 10.453a78.657 78.657 0 0 0-2.385 10.936 80.854 80.854 0 0 0-.709 11.176c.105 14.93 4.724 29.67 12.79 41.995 4.014 6.18 8.871 11.781 14.346 16.658 5.492 4.857 11.63 8.968 18.215 12.136 13.159 6.371 28.074 8.854 42.524 7.253 14.442-1.567 28.353-7.223 39.709-16.175 11.39-8.888 20.317-20.923 25.296-34.472 2.548-6.747 4.17-13.836 4.916-21.043.748-7.204.596-14.563-.635-21.77-1.209-7.21-3.474-14.288-6.817-20.85-1.685-3.273-3.563-6.458-5.733-9.436a67.772 67.772 0 0 0-3.406-4.352 87.5 87.5 0 0 0-1.82-2.077c-.551-.768-1.315-1.234-4.032-.02l8.74-8.223zm-183.609 139.62a35.316 35.316 0 0 1-1.728-1.747c-.519-.564-1.034-1.108-1.526-1.671-.98-1.127-1.946-2.235-2.86-3.381a97.619 97.619 0 0 1-5.169-7.027c-3.204-4.82-5.937-9.927-8.06-15.3-2.115-5.375-3.59-11.001-4.493-16.754a94.211 94.211 0 0 1-.94-8.731c-.186-2.943-.21-5.904-.257-8.917l-.003-.213a6.147 6.147 0 0 1 6.052-6.242 6.147 6.147 0 0 1 5.776 8.498c-.964 2.33-1.58 4.77-1.973 7.248a37.834 37.834 0 0 0-.438 7.514c.196 5.038 1.411 10.032 3.393 14.697 1.97 4.673 4.71 9.033 8.02 12.88.81.976 1.692 1.892 2.586 2.788.897.892 1.81 1.766 2.78 2.57.964.808 1.936 1.599 2.957 2.3.51.352 1.011.704 1.527 1.015.496.296 1.068.65 1.448.793a6.191 6.191 0 1 1-6.4 10.33l-.692-.65z"/><path d="M354.876 305.48c.329-7.786-2.5-15.72-7.904-21.742a31.12 31.12 0 0 0-9.721-7.285c-3.717-1.753-7.824-2.804-12.021-2.933-4.197-.178-8.427.568-12.363 2.11-3.941 1.54-7.525 3.966-10.548 6.94a32.427 32.427 0 0 0-6.925 10.553c-1.576 3.942-2.275 8.12-2.19 12.397.099 4.124 1.096 8.313 2.806 12.061 1.729 3.763 4.227 7.131 7.23 9.888a30.859 30.859 0 0 0 10.302 6.232 30.063 30.063 0 0 0 8.729 1.755c.491.025.993.033 1.474.04l.686-.002.865-.018c7.748-.304 15.36-3.745 20.587-9.342a33.778 33.778 0 0 0 6.354-9.47 29.19 29.19 0 0 0 1.859-5.435 29.547 29.547 0 0 0 .689-4.286l.053-.67.038-.863v.07zm11.125.07l.016.865-.01 1.057a40.75 40.75 0 0 1-.571 6 40.614 40.614 0 0 1-2.144 7.776c-1.962 5.032-5.047 9.626-8.924 13.371a41.086 41.086 0 0 1-13.495 8.623c-2.492.984-5.092 1.668-7.717 2.115a40.34 40.34 0 0 1-5.944.553l-.992.008-1.057-.017-.863-.04-1.041-.065a40.246 40.246 0 0 1-5.861-.925 39.634 39.634 0 0 1-19.972-11.588c-7.055-7.533-10.872-17.718-10.588-27.844.177-9.969 4.396-19.892 11.51-26.842 7.002-7.089 16.82-11.282 26.882-11.574 10.052-.35 20.413 3.328 28.05 10.406 3.835 3.507 6.976 7.827 9.175 12.63 2.205 4.802 3.386 10.101 3.546 15.421v.07z"/><path d="M350.97 283.658l-26.84 21.089 37.959-4.986-4.22-11.502zM20 104.388l27.5 51 16-11 29.5 52 21-7.5 23.5 48-15.5-69-30 6.5-26.5-44-18 10zm519.5-4l-27.5 51-16-11-29.5 52-21-7.5-23.5 48 15.5-69 30 6.5 26.5-44 18 10zM311.984 8l3.03 57.863-19.387-1.077 1.84 59.757-21.838 4.513 4.886 53.22-22.638-66.998 29.004-10.047-.243-51.363 20.575-.818z"/></g></svg>