<svg width="550" height="440" viewBox="0 0 550 440" xmlns="http://www.w3.org/2000/svg"><title>eye-red</title><g fill="#FFF" fill-rule="evenodd"><path d="M443.986 253.884a7.285 7.285 0 0 1-1.436-1.018 8.301 8.301 0 0 1-1.149-1.333l-1.054-1.409a238.902 238.902 0 0 0-4.34-5.573 275.674 275.674 0 0 0-9.152-10.814c-6.243-7.099-12.86-13.866-19.743-20.337-13.769-12.92-28.925-24.43-45.519-33.312-16.54-8.889-34.728-14.937-53.41-16.286a121.651 121.651 0 0 0-6.98-.328c-2.387-.053-4.66.017-6.994.147-4.64.27-9.27.864-13.859 1.734-9.179 1.75-18.159 4.647-26.846 8.26-17.359 7.333-33.56 17.392-48.769 28.7-15.2 11.355-29.49 23.953-43.125 37.212-6.769 6.683-13.434 13.466-20.146 20.217-3.346 3.385-6.669 6.798-9.882 10.298-1.59 1.763-3.185 3.521-4.696 5.333-1.49 1.81-3.026 3.644-4.289 5.453l-.434.644a7.923 7.923 0 0 0-.277.45c.216-.538-.048.155-.127.38l-.303.82c-.367.994-.555 1.77-.543 2.198.041.433.063.43.29.717.235.271.814.69 1.59 1.035 1.565.72 3.692 1.207 5.852 1.485 2.177.293 4.452.442 6.75.51 4.603.075 9.301-.152 13.995-.596 4.698-.449 9.405-1.062 14.091-1.925h.002l.301-.018a5.508 5.508 0 0 1 3.354.89c11.464 7.49 22.754 14.85 34.43 21.568 11.668 6.694 23.64 12.798 36.025 17.83 12.396 4.974 25.21 8.876 38.298 11.026 6.543 1.073 13.137 1.702 19.754 1.8 6.59.075 13.21-.4 19.758-1.373 13.105-1.96 25.943-5.908 38.132-11.367 12.203-5.449 23.816-12.286 34.766-20.074 10.956-7.787 21.283-16.496 30.99-25.85a297.929 297.929 0 0 0 14.067-14.523 271.918 271.918 0 0 0 6.64-7.614 172.827 172.827 0 0 0 3.988-4.957zm6.75 1.482c-4.123 5.304-8.293 10.352-12.71 15.286a304.171 304.171 0 0 1-14.28 14.918c-9.859 9.615-20.368 18.591-31.58 26.662-11.215 8.055-23.124 15.242-35.768 21.014-12.639 5.746-26 10.151-39.834 12.422-13.824 2.303-28.077 2.314-41.916.331-13.869-1.967-27.372-5.767-40.367-10.652-26.08-9.642-50.098-23.833-73.444-37.716l3.655.872h-.002c-9.81-.102-19.579.094-29.584-.752-2.506-.206-5.03-.489-7.605-.968a44.657 44.657 0 0 1-3.913-.909c-1.328-.372-2.683-.828-4.083-1.51-1.385-.69-2.884-1.595-4.213-3.167a8.995 8.995 0 0 1-1.595-2.796 9.1 9.1 0 0 1-.496-3.132c.034-1.988.553-3.557.992-4.818l.317-.875c.146-.333.022-.232.524-1.3.261-.497.448-.788.646-1.1l.568-.857a157.535 157.535 0 0 1 4.411-6.064c1.488-1.95 2.953-3.907 4.464-5.823a380.745 380.745 0 0 1 9.155-11.405c6.243-7.484 12.993-14.517 20.05-21.226 7.017-6.748 14.264-13.265 21.776-19.476 7.485-6.244 15.27-12.139 23.277-17.727 16.028-11.128 33.082-21.025 51.45-28.124 9.163-3.57 18.658-6.406 28.41-8.174a115.14 115.14 0 0 1 14.783-1.74c2.47-.132 5.011-.155 7.436-.127 2.501.031 4.971.135 7.44.308 9.876.7 19.643 2.563 29.125 5.304 9.472 2.787 18.674 6.43 27.492 10.808 17.652 8.768 33.76 20.296 48.427 33.276 7.337 6.503 14.246 13.463 20.83 20.715a286.823 286.823 0 0 1 9.525 11.196c1.54 1.91 3.057 3.842 4.546 5.804l1.111 1.477c.38.487.721 1.004.991 1.574.533 1.154.854 2.422.604 4.17l-.616 4.301z"/><path d="M131.595 189.769l.927-1.093 1.033-1.172a74.62 74.62 0 0 1 2.06-2.197 92.844 92.844 0 0 1 4.27-4.104 127.155 127.155 0 0 1 8.957-7.345c6.118-4.583 12.465-8.665 18.94-12.444 12.96-7.54 26.422-13.906 40.166-19.494a378.91 378.91 0 0 1 42.1-14.255c14.303-3.906 28.86-6.981 43.659-8.854 7.4-.925 14.859-1.548 22.368-1.743 7.492-.2 15.116.048 22.656.965 15.095 1.77 30.01 6.303 43.447 13.48 13.489 7.123 25.35 16.68 36.085 26.857 10.782 10.163 20.56 21.016 31.043 30.654l.016.014a4.778 4.778 0 0 1-6.417 7.078c-11.113-9.933-21.022-20.621-31.595-30.28-10.522-9.682-21.731-18.38-34.147-24.7-12.375-6.364-25.867-10.25-39.723-11.675-13.835-1.455-28.057-.55-42.13 1.396-14.081 1.993-28.053 5.156-41.792 9.13a365.604 365.604 0 0 0-40.424 14.36c-13.157 5.576-26.001 11.899-38.12 19.195-6.05 3.65-11.913 7.556-17.391 11.79-5.468 4.252-10.554 8.78-14.625 13.84a7.374 7.374 0 0 1-10.37 1.123 7.375 7.375 0 0 1-1.123-10.37l.097-.117.033-.04z"/><path d="M357.518 169.973c.75.571 1.475 1.327 2.142 2.042a87.236 87.236 0 0 1 5.72 6.855 85.547 85.547 0 0 1 6.476 10.025 85.816 85.816 0 0 1 8.535 22.355 86.076 86.076 0 0 1 1.909 23.972 83.427 83.427 0 0 1-5.014 23.61c-5.661 15.136-15.625 28.633-28.48 38.38-12.835 9.76-28.44 15.801-44.43 17.14-15.96 1.381-32.276-1.668-46.532-8.877-14.256-7.199-26.421-18.323-34.924-31.826-8.55-13.475-13.271-29.426-13.234-45.5a86.73 86.73 0 0 1 .858-11.969 84.914 84.914 0 0 1 2.618-11.732c1.13-3.847 2.594-7.59 4.3-11.209a84.84 84.84 0 0 1 4.253-7.922c.78-.679.023-2.365 3.99-1.02l1.33.841c1.483 1.496 1.784 2.211 1.678 2.682-.198.414-.447.797-.666 1.198a78.213 78.213 0 0 0-3.632 7.358c-1.44 3.35-2.631 6.796-3.638 10.29a78.916 78.916 0 0 0-2.232 10.667 78.505 78.505 0 0 0-.823 10.888c-.186 14.516 3.653 29.165 11.264 41.673 7.565 12.53 18.875 22.795 32.045 29.15a77.968 77.968 0 0 0 20.779 6.71c7.188 1.24 14.556 1.42 21.786.63 14.468-1.575 28.388-7.284 39.73-16.268 11.38-8.917 20.302-20.96 25.26-34.517 2.532-6.754 4.123-13.853 4.767-21.056.655-7.198.38-14.523-.937-21.666a77.384 77.384 0 0 0-6.786-20.724 78.82 78.82 0 0 0-8.804-13.934 94.053 94.053 0 0 0-1.747-2.138c-.605-.712-1.174-1.363-1.74-2.179l4.179-3.929zM180.525 308.375c-1.44-1.13-2.599-2.138-3.842-3.21-1.207-1.075-2.41-2.129-3.573-3.226a129.052 129.052 0 0 1-6.751-6.77c-4.305-4.69-8.267-9.768-11.414-15.474-3.127-5.69-5.377-12.099-5.942-18.91a43.3 43.3 0 0 1 .384-10.28c.527-3.424 1.477-6.767 2.574-10.078l.082-.249a6.126 6.126 0 0 1 11.629 3.852 6.223 6.223 0 0 1-1.076 1.955 23.68 23.68 0 0 0-5.339 14.486c-.06 2.64.34 5.311 1.091 7.917.773 2.602 1.907 5.13 3.297 7.541 2.787 4.83 6.598 9.16 10.907 12.914a63.531 63.531 0 0 0 6.836 5.2c1.2.781 2.407 1.55 3.655 2.231 1.214.682 2.55 1.378 3.683 1.828a6.08 6.08 0 1 1-5.972 10.455l-.229-.182z"/><path d="M324.92 225.937c-.057-2.232-.103-4.47-.435-6.693a33.141 33.141 0 0 0-1.693-6.527 34.843 34.843 0 0 0-7.122-11.58 35.512 35.512 0 0 0-11.15-8.158c-4.231-1.98-8.9-3.086-13.65-3.25-4.748-.156-9.545.639-14.004 2.394-4.474 1.719-8.564 4.434-12.021 7.788a31.851 31.851 0 0 0-7.657 12.075c-1.576 4.54-2.153 9.234-1.905 14 .258 4.563 1.206 9.215 3.033 13.432 1.829 4.228 4.455 8.109 7.73 11.34a35.364 35.364 0 0 0 11.388 7.62 35.18 35.18 0 0 0 13.492 2.685 35.56 35.56 0 0 0 6.806-.66 34.14 34.14 0 0 0 6.57-2.03 35.149 35.149 0 0 0 11.323-7.681c3.218-3.278 5.645-7.278 7.18-11.53a34.792 34.792 0 0 0 1.662-6.536c.18-1.107.297-2.221.374-3.337.04-.554.065-1.122.08-1.668l.009-.782-.01-.972v.07zm11.126.07l-.034.972-.063 1.162a48.221 48.221 0 0 1-.203 2.21 43.014 43.014 0 0 1-.758 4.356 44.014 44.014 0 0 1-2.842 8.329c-2.433 5.332-5.892 10.112-10.01 14.167a44.288 44.288 0 0 1-14.375 9.509 44.5 44.5 0 0 1-8.294 2.47 44.27 44.27 0 0 1-8.654.854c-5.648.01-11.52-1.111-16.832-3.331a44.068 44.068 0 0 1-14.31-9.57c-8.141-8.178-12.941-19.688-12.441-31.25.245-5.606 1.705-11.283 4.112-16.324 2.384-5.08 5.633-9.671 9.532-13.622 3.876-3.982 8.567-7.152 13.676-9.401a44.065 44.065 0 0 1 16.32-3.62 43.966 43.966 0 0 1 16.676 2.765 43.826 43.826 0 0 1 14.547 9.032c8.435 7.88 13.759 19.37 13.953 31.222v.07z"/><path d="M319.83 201.383l-30.198 23.728 41.11 8.152-3.148-26.703zm-33.72 8.44a5.813 5.813 0 1 1-11.627-.001 5.813 5.813 0 0 1 11.628.001"/></g></svg>