<svg width="550" height="440" viewBox="0 0 550 440" xmlns="http://www.w3.org/2000/svg"><title>eye-red-hover</title><g fill="none" fill-rule="evenodd"><path d="M451.545 226.969s-71.635 93.968-160 93.968c-88.366 0-160-93.968-160-93.968S203.179 133 291.545 133c88.365 0 160 93.968 160 93.968z" stroke="#FFF" stroke-width="12"/><path d="M347.878 226.969c0 31.112-25.221 56.333-56.333 56.333s-56.333-25.221-56.333-56.333 25.22-56.333 56.333-56.333c31.112 0 56.333 25.22 56.333 56.333z" stroke="#FFF" stroke-width="12"/><path stroke="#FFF" stroke-width="4" d="M432.53 250.506l-29.735-2.287-15.5-8.75-12 2"/><path stroke="#FFF" stroke-width="4" d="M415.545 248.219l-3-8.75-9.75-6.25m0 15l-10.916 10.084h-7.334m67-31.334l-27.666-13.333-18.667 2-9.667-7.333m28.333 5.333v10.667m-18.125-43.442l-25.209 9.28-12.666 21.161m23.926-25.306l-17.926-8.693m-2.89-20.703l-10.776 10.703-6.445 3.333m6.444-3.334v16.666m-18.714-42.741l-10.952 7.075v10.333m0-10.333h-8m-39.691-17.833v15.834l-4.976 4.038m4.976-10.039l12.357 8m89.334 140.566l-9.25-15.899 2.917-7.667m-2.917 7.667l-18.417 1.334M131.55 227.015l38.994-2.713 12-13m-13.09 13.112l13.09 8.805 12.334 3.417m-50.332-9.667l8.332 12.5m28.086-63.683l11.58 16.85h21.334m-21.333 0v11.667m-34.641-11.55l11.55 7.882 7.091-2.737m34.351-40.594l2.982 9.999 12 5v11.666m0-11.667h9m12.848-31.922l3.818 9.961-3.166 9.961m3.167-12l8.333 2.04m-46 17.96l-3.667 12.56m41.334-24.262l4.167 2.036m104.499 18.666l-6.444 1.416m26.778 11.422l-15.343.608m16.015-9.887l1.624-6.279M217.815 300.528l12.563-23.443-2.584-7.367"/><path stroke="#FFF" stroke-width="4" d="M220.598 293.969h8.724l11.222-5.374m-11.222 5.374l3.723 6.136m-9.333-11.51l-15.5-4.626-2.917-11m-45.193-10.717l9.352-3.95 7.09-12.583m-7.09 12.583h13.09l10-2.792m68.235 64.358l5.099-19.764 6.667-3.068m-10.149 15.159l-8.102-12.09m52.917-6.136l-2.167 6.136 14.167 17.843-21.667-5.753"/><path stroke="#FFF" stroke-width="4" d="M314.223 310.292l4.988-4.143v-6.045m-8.721 6.046l-9.612 2.836m50.902-2.836l1.987-17.282-13.614-.274m13.614-1.125l1.028-7.75"/><path fill="#FFF" d="M317.437 174l-25.893 52.969 45.906-35.476"/></g></svg>