<svg width="550" height="440" viewBox="0 0 550 440" xmlns="http://www.w3.org/2000/svg"><title>eye-green</title><g fill="#FFF" fill-rule="evenodd"><path d="M449.62 234l-.083-.018c-3.213-.67-5.804-2.005-8.182-3.376-2.381-1.373-4.57-2.825-6.684-4.303-4.217-2.962-8.143-6.03-12.024-9.09-7.73-6.14-15.278-12.234-22.982-18.083-15.36-11.709-31.49-22.306-48.946-30.253-17.421-7.92-36.144-13.118-55.266-14.429a159.589 159.589 0 0 0-7.162-.357c-2.412-.07-4.783-.078-7.133.028-4.721.2-9.437.743-14.112 1.585-9.36 1.675-18.5 4.641-27.337 8.32-17.67 7.482-34.012 18-49.324 29.714-15.296 11.785-29.632 24.832-43.293 38.537L126.88 253.13c-3.357 3.491-6.683 7.018-9.865 10.652-1.593 1.814-3.16 3.648-4.64 5.527-.743.935-1.476 1.873-2.176 2.807-.347.465-.675.942-.982 1.395l-.421.647-.154.257-.037.066c-.007.005-.008.032.078-.189l-.194.596-.196.706c-.118.47-.212.935-.276 1.391a8.18 8.18 0 0 0-.003 2.544c.266 1.536.919 2.575 2.154 3.494 1.232.924 3.089 1.547 5.112 1.89 2.033.34 4.24.463 6.485.381 4.503-.16 9.145-.91 13.738-1.96 4.596-1.073 9.18-2.4 13.684-4.037h.003l.492-.106a5.446 5.446 0 0 1 4.166.806c11.13 7.508 23.725 13.374 36.584 18.293 12.898 4.912 26.243 8.767 39.774 11.72 13.543 2.9 27.294 4.905 41.106 5.725 3.452.213 6.906.36 10.36.433l2.572.043 2.608.014c1.699-.02 3.397-.05 5.095-.142 6.793-.323 13.567-1.228 20.258-2.59 6.683-1.412 13.279-3.283 19.752-5.539 6.474-2.257 12.797-4.962 18.998-7.922 12.4-5.94 24.258-13.055 35.525-21.003 11.276-7.942 22.01-16.662 32.21-25.925 5.089-4.643 10.04-9.434 14.769-14.38a202.927 202.927 0 0 0 6.868-7.53 138.636 138.636 0 0 0 3.156-3.798c.494-.618.972-1.24 1.364-1.792.194-.27.363-.536.445-.662.043-.06.043-.085-.058.133a2.89 2.89 0 0 0-.116.28 4.597 4.597 0 0 0-.125.357c-.048.167-.043.142-.121.47-.073.327-.12.666-.136 1.002-.032.058-.013 1.655.305 2.384-.28.117 2.046 4.16 4.437 4.393.054.014.1.028.14.04m3.73-13.178l.222.062c2.419.28 4.812 4.348 4.527 4.526.32.783.367 2.434.319 2.546a8 8 0 0 1-.16 1.165c-.086.382-.105.407-.167.627a9.15 9.15 0 0 1-.176.514c-.083.211-.16.388-.247.581-.291.614-.508.971-.697 1.282-.38.62-.71 1.077-1.032 1.517a55.063 55.063 0 0 1-1.861 2.366c-1.215 1.48-2.458 2.841-3.701 4.187a216.41 216.41 0 0 1-7.606 7.758c-5.156 5.018-10.475 9.805-15.927 14.43a326.203 326.203 0 0 1-34.402 25.508c-12.03 7.698-24.554 14.682-37.677 20.443a213.083 213.083 0 0 1-20.104 7.648c-6.826 2.227-13.8 4.054-20.88 5.403-7.073 1.37-14.26 2.26-21.493 2.533-1.808.078-3.618.094-5.428.098l-2.656-.012-2.69-.04a269.39 269.39 0 0 1-10.675-.43 322.388 322.388 0 0 1-42.285-5.492 335.696 335.696 0 0 1-41.302-10.81c-6.764-2.28-13.496-4.723-20.113-7.543-6.631-2.792-13.177-5.88-19.59-9.48l4.657.702-.003.001c-4.973.82-9.945 1.667-14.997 2.268-2.523.32-5.07.56-7.641.725-2.571.177-5.173.257-7.822.165-2.647-.098-5.35-.309-8.121-.925-2.753-.629-5.66-1.619-8.357-3.653-1.331-1.02-2.56-2.35-3.454-3.898-.901-1.544-1.443-3.263-1.667-4.918-.227-1.663-.16-3.263.036-4.775.103-.758.247-1.494.423-2.213.088-.36.184-.715.287-1.066l.16-.522.085-.258.129-.369c.145-.362.209-.473.273-.604l.18-.338.313-.533.573-.897 1.11-1.622a130.167 130.167 0 0 1 2.192-3.096l4.453-6.007c2.99-3.966 6.012-7.899 9.122-11.76 6.208-7.732 12.922-15.034 20.012-21.954 7.04-6.966 14.312-13.709 21.879-20.12 7.534-6.45 15.38-12.542 23.469-18.31 16.18-11.504 33.472-21.664 52.09-29.032 9.29-3.704 18.95-6.593 28.874-8.396 4.96-.898 9.992-1.486 15.055-1.707 2.54-.112 5.069-.108 7.55-.086a164.063 164.063 0 0 1 22.445 1.804c4.958.717 9.884 1.647 14.759 2.794a194.899 194.899 0 0 1 28.59 9.143c18.587 7.483 35.967 17.641 52.33 28.847 8.196 5.586 16.117 11.508 23.989 17.202 3.933 2.84 7.857 5.632 11.768 8.132 1.953 1.246 3.906 2.413 5.814 3.403 1.908.981 3.76 1.77 5.247 2.486"/><path d="M120.689 162.179c4.729-5.817 10.053-10.988 15.567-15.71 5.527-4.733 11.294-9.076 17.22-13.141 11.863-8.117 24.415-15.034 37.366-21.05 12.959-6 26.382-11.023 40.203-14.764 13.807-3.76 27.999-6.335 42.399-7.206 7.197-.426 14.44-.43 21.672.113a416.27 416.27 0 0 1 21.068 2.274 377.324 377.324 0 0 1 41.567 7.853c13.682 3.47 27.186 7.766 40.24 13.255 6.532 2.73 12.9 5.874 19.089 9.34a161.113 161.113 0 0 1 9.093 5.53 132.138 132.138 0 0 1 8.638 6.237 2.424 2.424 0 0 1-2.835 3.927l-.022-.015c-5.671-3.798-11.635-7.15-17.78-10.136-6.148-2.984-12.5-5.547-18.925-7.9-12.87-4.682-26.172-8.191-39.623-10.923-13.443-2.792-27.066-4.743-40.732-6.142a422.164 422.164 0 0 0-20.511-1.557c-6.663-.331-13.37-.162-20.056.403-13.378 1.146-26.663 3.894-39.618 7.774-6.482 1.933-12.874 4.187-19.19 6.637a260.002 260.002 0 0 0-18.653 8.085 257.587 257.587 0 0 0-35.068 20.349c-5.535 3.832-10.883 7.903-15.91 12.248-5.018 4.368-9.732 8.92-13.812 13.893a7.375 7.375 0 0 1-11.425-9.328l.038-.046z"/><path d="M142.666 209.972c19.445-23.773 42.837-44.327 69.79-59.557 13.464-7.59 27.973-13.54 43.12-17.275 15.13-3.732 30.976-5.052 46.513-3.503 15.525 1.503 30.55 5.584 44.812 11.026 14.279 5.457 27.884 12.203 41.04 19.487 13.18 7.249 26.002 14.935 39.002 22.066 6.49 3.577 13.038 7.007 19.74 9.99 6.702 2.963 13.563 5.534 20.623 7.048l.014.003a2.423 2.423 0 0 1 1.86 2.877 2.429 2.429 0 0 1-2.731 1.887c-7.653-1.16-15.004-3.471-22.088-6.218-7.094-2.747-13.96-5.925-20.724-9.228-13.49-6.68-26.577-13.886-39.853-20.513-13.276-6.608-26.65-12.86-40.44-17.67-13.765-4.815-27.946-8.202-42.223-9.177-14.242-1.018-28.558.563-42.328 4.354-6.885 1.889-13.638 4.307-20.213 7.17-6.572 2.874-12.973 6.17-19.208 9.78-12.458 7.255-24.148 15.924-35.026 25.525-10.941 9.54-21.04 20.069-30.257 31.259l-.023.027a7.375 7.375 0 0 1-11.4-9.358"/><path d="M344.935 156c.72.537 1.411 1.259 2.048 1.939a82.809 82.809 0 0 1 5.459 6.529 81.258 81.258 0 0 1 6.182 9.55 81.792 81.792 0 0 1 8.163 21.306 82.098 82.098 0 0 1 1.84 22.862 79.564 79.564 0 0 1-4.775 22.523 81.981 81.981 0 0 1-10.983 20.254c-4.61 6.168-10.043 11.728-16.19 16.353-12.247 9.301-27.133 15.059-42.383 16.325-15.218 1.308-30.774-1.606-44.363-8.481-13.589-6.871-25.183-17.473-33.294-30.344-8.158-12.841-12.67-28.048-12.639-43.378.01-3.785.28-7.633.818-11.412a80.99 80.99 0 0 1 2.5-11.187c1.08-3.668 2.478-7.237 4.107-10.687a81.22 81.22 0 0 1 4.06-7.549c.738-.65.007-2.265 3.918-.901l1.331.841c2.943 2.904 1.266 2.842 1.083 3.761a74.07 74.07 0 0 0-3.44 6.986c-1.362 3.18-2.489 6.452-3.444 9.767a74.846 74.846 0 0 0-2.114 10.122 74.361 74.361 0 0 0-.782 10.332c-.18 13.771 3.45 27.675 10.668 39.551 7.173 11.895 17.912 21.641 30.415 27.666a73.954 73.954 0 0 0 19.722 6.36c6.822 1.174 13.814 1.34 20.675.586 13.727-1.504 26.928-6.928 37.682-15.455 10.777-8.483 19.194-19.914 23.951-32.744 2.404-6.403 3.913-13.137 4.53-19.968.626-6.827.373-13.777-.868-20.556a73.482 73.482 0 0 0-6.413-19.676 74.909 74.909 0 0 0-9.998-15.269c-.573-.677-1.11-1.295-1.644-2.077l4.178-3.929zM168.81 299.896c-1.467-1.067-2.65-2.024-3.92-3.04-1.235-1.02-2.464-2.022-3.657-3.065a127.578 127.578 0 0 1-6.93-6.46c-4.434-4.494-8.54-9.388-11.836-14.96-3.275-5.555-5.666-11.899-6.294-18.679-.317-3.379-.194-6.832.33-10.229.516-3.403 1.46-6.718 2.542-10l.083-.252a6.127 6.127 0 1 1 10.552 5.81c-3.333 4.052-5.186 9.09-5.256 14.278-.036 2.595.395 5.217 1.188 7.765.814 2.544 1.998 5.005 3.44 7.342 2.892 4.678 6.81 8.824 11.207 12.375a62.45 62.45 0 0 0 6.952 4.885c1.217.726 2.44 1.44 3.7 2.067 1.227.627 2.574 1.265 3.712 1.665a6.083 6.083 0 1 1-5.574 10.674l-.24-.176z"/><path d="M321.872 213.136c-.045-2.303-.118-4.61-.456-6.902a34.156 34.156 0 0 0-1.755-6.728 35.946 35.946 0 0 0-7.353-11.928 36.64 36.64 0 0 0-11.498-8.39c-4.36-2.045-9.177-3.138-14.06-3.306-9.792-.437-19.713 3.492-26.784 10.47-3.518 3.496-6.264 7.78-7.89 12.423-1.63 4.669-2.234 9.504-1.986 14.41.259 4.704 1.236 9.493 3.099 13.848a36.321 36.321 0 0 0 7.977 11.684c3.36 3.343 7.362 6.04 11.736 7.85a36.272 36.272 0 0 0 13.903 2.767 36.592 36.592 0 0 0 7.014-.68 35.188 35.188 0 0 0 6.773-2.092 36.257 36.257 0 0 0 11.67-7.913c3.317-3.377 5.823-7.495 7.413-11.877a36.08 36.08 0 0 0 1.725-6.737 34.912 34.912 0 0 0 .48-5.162l.005-.808-.013-1v.07zm11.125.07l-.038.999-.068 1.187a46.366 46.366 0 0 1-.976 6.723 44.642 44.642 0 0 1-2.9 8.53c-2.486 5.462-6.025 10.36-10.242 14.515a45.347 45.347 0 0 1-14.723 9.742 45.723 45.723 0 0 1-8.494 2.53c-2.926.579-5.8.87-8.865.874-5.787.012-11.8-1.138-17.241-3.412a45.063 45.063 0 0 1-14.657-9.804c-8.285-8.41-13.275-20.15-12.756-32.006.245-5.746 1.733-11.564 4.193-16.734 2.449-5.2 5.748-9.935 9.765-13.97 3.975-4.081 8.785-7.331 14.025-9.633a45.637 45.637 0 0 1 16.73-3.728c5.768-.171 11.605.827 17.085 2.872a44.913 44.913 0 0 1 14.894 9.265c8.635 8.078 14.075 19.848 14.268 31.98v.07z"/><path d="M317.014 188L286 212.37l42.222 8.373-3.233-27.426zm-31.741 9.638a8.637 8.637 0 1 1-17.274-.002 8.637 8.637 0 0 1 17.274.002"/></g></svg>