<svg width="550" height="440" viewBox="0 0 550 440" xmlns="http://www.w3.org/2000/svg"><title>eye-green-hover</title><g fill="none" fill-rule="evenodd"><path d="M444 227.968s-71.635 93.968-160 93.968c-88.366 0-160-93.968-160-93.968S195.634 134 284 134c88.365 0 160 93.968 160 93.968z" stroke="#FFF" stroke-width="12"/><path d="M346.445 228.222c0 34.364-27.858 62.222-62.222 62.222-34.365 0-62.223-27.858-62.223-62.222C222 193.858 249.858 166 284.223 166c34.364 0 62.222 27.858 62.222 62.222z" stroke="#FFF" stroke-width="12"/><path fill="#FFF" d="M284 228.226L319.322 177l15.904 15.904z"/><path d="M444 228h22m-364 0h22" stroke="#FFF" stroke-width="12" stroke-linecap="round" stroke-linejoin="round"/></g></svg>