<svg width="550" height="440" viewBox="0 0 550 440" xmlns="http://www.w3.org/2000/svg"><title>eye-yellow-hover</title><g fill="none" fill-rule="evenodd"><path d="M445.07 226s-71.634 93.968-160 93.968c-88.365 0-160-93.968-160-93.968s71.635-93.968 160-93.968c88.366 0 160 93.968 160 93.968z" stroke="#FFF" stroke-width="12"/><path d="M347.293 226c0 34.364-27.858 62.222-62.222 62.222-34.364 0-62.223-27.858-62.223-62.222 0-34.364 27.859-62.222 62.223-62.222s62.222 27.858 62.222 62.222z" stroke="#FFF" stroke-width="12"/><path fill="#FFF" d="M285.07 226l35.323-51.226 15.906 15.902z"/><path d="M233.913 142.028l-26.509-56.361M185.05 168.25l-39.343-41.94m-5.047 81.773L101.07 184.5M336 142.361L362.509 86M286 129.361V68.868m99.092 99.382l39.342-41.94m5.048 81.773L469.07 184.5" stroke="#FFF" stroke-width="12"/></g></svg>