<svg width="550" height="440" viewBox="0 0 550 440" xmlns="http://www.w3.org/2000/svg" xmlns:xlink="http://www.w3.org/1999/xlink"><title>eye-yellow</title><defs><path id="a" d="M347.982 172H0V.963h347.982V172z"/></defs><g fill="none" fill-rule="evenodd"><g transform="translate(91 159.484)"><mask id="b" fill="#fff"><use xlink:href="#a"/></mask><path d="M340.193 83.608a7.429 7.429 0 0 1-.776-.5c-.474-.353-.875-.771-1.264-1.204l-1.194-1.276a226.96 226.96 0 0 0-4.894-5.024 265.484 265.484 0 0 0-10.238-9.657c-6.945-6.324-14.26-12.238-21.774-17.873-15.056-11.22-31.325-20.878-48.661-28.017C234.1 12.87 215.566 8.539 196.895 8.053c-9.307-.337-18.481.812-27.54 2.994-9.022 2.247-17.843 5.456-26.338 9.405-17.005 7.919-32.882 18.288-47.852 29.77-14.965 11.52-29.076 24.17-42.622 37.393-6.748 6.639-13.31 13.462-19.975 20.193-6.626 6.75-13.326 13.536-19.248 20.808a109.88 109.88 0 0 0-2.147 2.719 51.03 51.03 0 0 0-.96 1.346l-.396.602-.114.193c.002-.008-.022.048.037-.084.052-.12.066-.173.037-.094l-.018.05c-.348.946-.732 1.622-1.053 2.203-.324.57-.6 1.043-.743 1.342-.07.144-.104.238-.088.205.01-.03.08-.224.042-.635-.027-.407-.264-.948-.487-1.211-.218-.276-.357-.348-.372-.367-.034-.02.274.115.646.199.377.093.842.175 1.332.243.986.135 2.077.215 3.188.262 2.23.07 4.55.005 6.876-.091 2.33-.086 4.675-.286 7.026-.492 2.35-.196 4.706-.46 7.06-.751 4.71-.571 9.424-1.271 14.119-2.17l.29-.016a5.527 5.527 0 0 1 3.366.89c5.387 3.509 11.26 6.526 17.322 9.193a194.823 194.823 0 0 0 18.712 7.085c12.77 4.109 25.928 7.25 39.236 9.62a364.295 364.295 0 0 0 40.306 4.704c6.748.396 13.563.662 20.248.612 6.648-.093 13.3-.713 19.893-1.777 13.195-2.125 26.132-6.045 38.547-11.256 12.428-5.196 24.375-11.61 35.798-18.865 11.425-7.258 22.351-15.336 32.767-24.028a337.155 337.155 0 0 0 15.223-13.502 304.705 304.705 0 0 0 7.282-7.093 200.867 200.867 0 0 0 3.897-4.044zm7.576 1.006c-9.43 10.22-19.346 19.639-29.867 28.53-10.56 8.917-21.654 17.223-33.306 24.72-11.658 7.482-23.863 14.188-36.667 19.669-12.798 5.459-26.18 9.763-40.008 12.204-6.909 1.219-13.918 1.977-20.96 2.182-7.01.16-13.895.076-20.825-.183a372.85 372.85 0 0 1-41.367-3.89c-13.722-2.042-27.368-4.821-40.803-8.696-13.422-3.904-26.718-8.696-39.305-15.98l3.654.874c-9.682-.18-19.29.14-29.086.006-2.456-.03-4.924-.11-7.47-.305a42.492 42.492 0 0 1-3.952-.437 20.784 20.784 0 0 1-2.182-.47c-.78-.228-1.619-.482-2.683-1.114a6.51 6.51 0 0 1-1.738-1.515c-.597-.728-1.077-1.84-1.17-2.842a6.21 6.21 0 0 1 .226-2.407 9.94 9.94 0 0 1 .563-1.465c.373-.781.71-1.336.97-1.81.258-.464.443-.845.502-1.025l.058-.161.122-.301c.12-.268.165-.346.238-.485.127-.234.232-.411.336-.583.204-.333.393-.622.582-.902a54.49 54.49 0 0 1 1.11-1.584 138.607 138.607 0 0 1 2.18-3.004c5.88-7.792 11.806-15.406 18.102-22.764 6.284-7.357 13.07-14.256 20.037-20.957a491.017 491.017 0 0 1 10.59-9.913 465.942 465.942 0 0 1 10.94-9.538c7.377-6.265 15.037-12.206 22.897-17.884 15.735-11.307 32.404-21.522 50.36-29.244 8.975-3.836 18.244-7.117 27.843-9.303 4.79-1.12 9.656-1.977 14.576-2.496a102.82 102.82 0 0 1 11.151-.577c1.186 0 2.393.01 3.648.039 19.626.44 38.977 4.76 57.263 11.576 18.3 6.872 35.497 16.396 51.458 27.556 7.998 5.569 15.6 11.679 22.93 18.094a275.093 275.093 0 0 1 10.666 10.006 237.368 237.368 0 0 1 5.135 5.24l1.262 1.34c.426.443.834.905 1.166 1.438.663 1.076 1.112 2.299 1.026 4.084l-.202 4.277z" fill="#FFF" mask="url(#b)"/></g><path d="M130.779 172.43c9.96-8.9 20.694-16.923 31.912-24.072a266.342 266.342 0 0 1 35.13-18.834c24.294-10.765 50.263-17.896 76.759-20.457 6.62-.639 13.27-.995 19.92-1.056 6.62-.066 13.372.169 20.054.856 13.368 1.353 26.879 4.615 39.193 10.765 6.15 3.048 11.949 6.771 17.298 10.94 5.358 4.167 10.274 8.751 14.923 13.445 9.29 9.408 17.652 19.162 26.958 27.671a4.776 4.776 0 0 1-6.387 7.104l-.013-.012c-9.975-8.832-18.678-18.653-27.75-27.517-4.54-4.433-9.197-8.616-14.132-12.321-4.932-3.71-10.148-6.926-15.652-9.541-11.002-5.261-23.131-8.017-35.52-9.064-6.217-.53-12.436-.647-18.766-.48a217.27 217.27 0 0 0-18.856 1.314c-25.06 2.842-49.586 10.012-72.476 20.614-22.875 10.628-44.254 24.588-62.702 41.585a7.374 7.374 0 1 1-9.995-10.847l.054-.05.048-.043zm239.06 13.437c.267.328.365.709.492 1.112l.35 1.163c.227.776.443 1.553.649 2.332.413 1.558.781 3.124 1.128 4.698.691 3.147 1.279 6.328 1.597 9.583.084.814.158 1.632.219 2.456.071.81.097 1.693.088 2.442a87.238 87.238 0 0 1-.148 4.94 78.658 78.658 0 0 1-1.166 9.765c-2.332 12.925-7.799 25.283-15.756 35.714-7.924 10.464-18.349 18.958-30.062 24.745-11.722 5.796-24.784 8.75-37.769 8.702-12.987.04-25.976-2.953-37.595-8.694-11.661-5.656-21.992-13.965-30.109-24.096-8.105-10.132-13.921-22.197-16.533-34.99-1.346-6.377-1.828-12.943-1.615-19.42.111-3.276.456-6.501.964-9.717a85.206 85.206 0 0 1 1.459-7.161l.151-.59c.062-.194.059-.403.233-.57.346-.331 1.147-.551 2.977-.478l1.524.398c1.64.825 2.25 1.358 2.406 1.779.078.21-.009.379-.038.563l-.117.544a78.465 78.465 0 0 0-1.087 6.575c-.368 2.933-.525 5.909-.58 8.84-.12 5.942.479 11.83 1.618 17.624 2.348 11.558 7.241 22.636 14.438 32.078 7.149 9.474 16.629 17.204 27.341 22.36 10.737 5.115 22.64 7.649 34.498 7.435a76.83 76.83 0 0 0 34.023-8.708c10.465-5.418 19.561-13.318 26.556-22.72a79.154 79.154 0 0 0 8.814-15.16c2.361-5.36 4.082-10.99 5.195-16.737a84.338 84.338 0 0 0 1.183-8.708 80.94 80.94 0 0 0 .236-4.37c.001-.802.039-1.471.076-2.214.029-.728.047-1.462.053-2.2.003-2.947-.05-5.951-.264-8.95a88.608 88.608 0 0 0-.442-4.484l-.305-2.227-.175-1.105c-.053-.352-.144-.724-.068-1.15l5.561-1.4zM158.183 311.296a45.887 45.887 0 0 1-1.818-1.62l-1.662-1.565c-1.078-1.06-2.149-2.097-3.178-3.177a113.245 113.245 0 0 1-5.92-6.645c-3.744-4.588-7.105-9.522-9.742-14.92-2.625-5.392-4.473-11.266-5.224-17.406a54.273 54.273 0 0 1-.324-9.328c.153-3.14.602-6.27 1.137-9.425l.05-.295a6.15 6.15 0 0 1 12.128 2.055 6.27 6.27 0 0 1-.879 2.28c-1.336 2.095-2.289 4.39-2.933 6.769a26.896 26.896 0 0 0-.94 7.35c.035 4.997 1.484 9.999 3.857 14.56 2.362 4.578 5.621 8.749 9.4 12.38a53.96 53.96 0 0 0 6.036 5.035c1.068.757 2.143 1.497 3.262 2.155.557.33 1.108.662 1.672.957.548.282 1.154.608 1.61.774a6.14 6.14 0 1 1-6.038 10.483l-.494-.417z" fill="#FFF"/><path d="M324.078 222.627c-.058-2.233-.104-4.47-.435-6.693a33.153 33.153 0 0 0-1.694-6.528 34.863 34.863 0 0 0-7.122-11.58 35.525 35.525 0 0 0-11.15-8.157c-4.23-1.979-8.9-3.087-13.65-3.25-4.748-.156-9.545.64-14.004 2.394-4.474 1.72-8.564 4.434-12.02 7.787a31.859 31.859 0 0 0-7.658 12.075c-1.576 4.54-2.153 9.235-1.905 14.001.258 4.562 1.206 9.214 3.033 13.431 1.83 4.228 4.455 8.11 7.731 11.342a35.377 35.377 0 0 0 11.387 7.62 35.179 35.179 0 0 0 13.493 2.684 35.487 35.487 0 0 0 6.805-.66 34.118 34.118 0 0 0 6.571-2.03 35.12 35.12 0 0 0 11.322-7.68c3.218-3.28 5.645-7.28 7.181-11.532a34.802 34.802 0 0 0 1.661-6.535c.181-1.108.297-2.22.374-3.338.04-.555.065-1.122.08-1.667l.01-.782-.01-.972v.07zm11.125.07l-.034.972-.063 1.161c-.052.75-.118 1.474-.203 2.21a42.788 42.788 0 0 1-.759 4.356 43.813 43.813 0 0 1-2.84 8.328c-2.434 5.332-5.893 10.113-10.01 14.168a44.307 44.307 0 0 1-14.376 9.51 44.576 44.576 0 0 1-8.294 2.471c-2.856.564-5.66.847-8.654.853-5.648.01-11.519-1.11-16.832-3.332a44.037 44.037 0 0 1-14.31-9.57c-8.14-8.178-12.94-19.688-12.44-31.25.244-5.605 1.704-11.283 4.11-16.323 2.385-5.08 5.634-9.672 9.533-13.622 3.876-3.982 8.567-7.152 13.676-9.4a44.061 44.061 0 0 1 16.32-3.622 44.007 44.007 0 0 1 16.676 2.765 43.826 43.826 0 0 1 14.547 9.032c8.436 7.881 13.76 19.371 13.953 31.223v.07z" fill="#FFF"/><path fill="#FFF" d="M309.122 190.211l-20.457 32.503 33.727-20.147-4.217-10.092zm-28.916 19.29a5.811 5.811 0 0 1-3.519 7.43 5.813 5.813 0 1 1 3.519-7.429m176.362 24.186c.673.19 1.58.365 2.401.501.846.137 1.704.246 2.567.33 1.726.163 3.474.222 5.226.17 3.5-.105 7.019-.649 10.413-1.724a1.013 1.013 0 0 1 .767 1.87c-3.363 1.691-7.007 2.88-10.755 3.6-1.877.36-3.78.602-5.702.728a45.08 45.08 0 0 1-2.903.093c-.996-.007-1.909-.023-3.034-.144l-.033-.003a2.77 2.77 0 1 1 1.053-5.42M139.53 313.048c2.152 1.674 4.457 3.303 6.768 4.846a120.627 120.627 0 0 0 7.112 4.397c4.842 2.737 9.894 5.182 15.215 6.629l.011.003a1.01 1.01 0 0 1-.479 1.962c-5.67-1.23-10.999-3.482-16.118-6.028a123.508 123.508 0 0 1-7.525-4.125c-2.466-1.466-4.863-2.973-7.26-4.643a1.9 1.9 0 1 1 2.171-3.118c.026.017.051.036.076.054l.028.023zm238.116 3.332c3.488-1.37 7.09-3.136 10.538-4.965a155.221 155.221 0 0 0 10.202-5.956 171.588 171.588 0 0 0 19.068-14.06c12.065-10.247 22.752-22.18 31.587-35.41a1.01 1.01 0 0 1 1.699 1.092c-8.446 13.703-18.856 26.234-30.793 37.145a175.874 175.874 0 0 1-19 15.108 160.731 160.731 0 0 1-10.29 6.522c-3.548 2.043-7.07 3.95-10.968 5.654a2.762 2.762 0 0 1-2.21-5.061l.084-.035.083-.033zm83.188-73.671c.49.239 1.248.508 1.92.717.694.217 1.41.405 2.134.57a36.09 36.09 0 0 0 4.446.71c3.013.296 6.09.253 9.155-.07a1.011 1.011 0 0 1 .332 1.993c-3.126.707-6.34 1.14-9.602 1.206a39.651 39.651 0 0 1-4.922-.2 31.91 31.91 0 0 1-2.48-.356c-.853-.166-1.61-.317-2.587-.64a2.126 2.126 0 1 1 1.604-3.93"/></g></svg>